<svg width="100" height="100" viewBox="0 0 100 100" fill="none" xmlns="http://www.w3.org/2000/svg">
<g clip-path="url(#clip0_528_540)">
<path d="M14.1294 10.5001C16.8031 11.477 18.3575 12.9563 19.6294 15.5001C19.6776 16.8189 19.696 18.1247 19.6924 19.4436C19.6933 19.851 19.6942 20.2585 19.6952 20.6783C19.6972 21.5652 19.6983 22.4522 19.6984 23.3391C19.7001 25.2279 19.7108 27.1165 19.7211 29.0053C19.7401 32.5227 19.7557 36.0401 19.7546 39.5576C19.7542 42.0033 19.766 44.4487 19.7856 46.8944C19.7908 47.8243 19.7916 48.7542 19.7878 49.6841C19.7665 55.4327 19.8312 59.6879 24.0239 64.0157C24.4919 64.4231 24.9598 64.8304 25.4419 65.2501C26.1477 65.8766 26.1477 65.8766 26.8677 66.5157C28.0841 67.5779 28.0841 67.5779 29.6294 68.0001C29.2021 67.5844 28.7747 67.1687 28.3345 66.7403C27.7764 66.1917 27.2185 65.6428 26.6606 65.0939C26.3787 64.8203 26.0967 64.5467 25.8061 64.2648C23.8995 62.381 23.2412 61.325 22.8794 58.6564C22.8884 56.2225 24.1504 54.9822 25.7661 53.2833C27.3657 51.8321 28.7658 51.7606 30.8622 51.8076C34.5628 52.3698 37.7059 56.4227 40.2231 58.9689C40.737 59.4769 40.737 59.4769 41.2612 59.9952C41.5961 60.3314 41.9309 60.6675 42.2759 61.0138C42.5725 61.3115 42.8691 61.6093 43.1747 61.916C43.4897 62.2738 43.8048 62.6315 44.1294 63.0001C44.5733 63.4806 45.0172 63.9611 45.4745 64.4562C47.3033 67.0851 46.9867 70.1042 46.9614 73.1896C46.9638 73.8323 46.9662 74.475 46.9687 75.1372C46.9723 76.4927 46.967 77.8477 46.9553 79.2031C46.9411 80.9344 46.9493 82.6648 46.9642 84.3961C46.9755 86.0565 46.9676 87.7166 46.9614 89.3771C46.969 90.3053 46.969 90.3053 46.9768 91.2523C46.9117 96.0343 46.9117 96.0343 45.4153 97.8711C43.2833 99.743 42.0288 100.212 39.1079 100.125C36.9835 99.8537 35.8749 98.7798 34.5044 97.2189C33.0852 95.2422 33.0428 94.0564 32.9712 91.6212C32.9608 91.2897 32.9504 90.9582 32.9397 90.6166C32.907 89.557 32.8775 88.4973 32.8481 87.4376C32.8265 86.7195 32.8047 86.0014 32.7827 85.2833C32.7292 83.5223 32.6785 81.7612 32.6294 80.0001C31.9694 81.3201 31.3094 82.6401 30.6294 84.0001C28.286 83.7189 26.5107 82.6829 24.5356 81.4689C24.2043 81.2668 23.8729 81.0647 23.5315 80.8566C15.5346 75.8942 9.01064 69.661 6.12939 60.5001C5.64276 58.1122 5.54955 55.7798 5.54089 53.3517C5.53761 52.9464 5.53432 52.5411 5.53094 52.1236C5.52113 50.7908 5.51525 49.458 5.51025 48.1251C5.50822 47.6682 5.50618 47.2114 5.50408 46.7407C5.49368 44.3252 5.48651 41.9097 5.48181 39.4943C5.47627 37.0025 5.45904 34.5111 5.43923 32.0194C5.42615 30.0995 5.42197 28.1796 5.42017 26.2596C5.41774 25.341 5.41193 24.4224 5.40265 23.5038C5.39047 22.2186 5.39094 20.9339 5.39441 19.6486C5.388 19.2713 5.3816 18.8941 5.375 18.5054C5.40654 15.2974 6.60816 13.5781 8.75439 11.3126C10.5646 10.2429 12.1022 10.1735 14.1294 10.5001Z" fill="#FF5E05"/>
<path d="M32.1292 15.9999C34.2879 16.8544 35.1159 17.9436 36.1292 19.9999C36.2995 21.6607 36.2995 21.6607 36.2757 23.5253C36.2736 23.8547 36.2714 24.1841 36.2693 24.5235C36.2609 25.5679 36.2421 26.6119 36.223 27.6562C36.2154 28.3674 36.2086 29.0787 36.2024 29.79C36.186 31.5268 36.1601 33.2633 36.1292 34.9999C36.4412 35.1437 36.7531 35.2874 37.0745 35.4355C38.5701 36.2359 38.9642 36.9372 39.6292 38.4999C40.0115 40.5175 40.0825 42.2239 39.0257 44.0331C37.1841 46.2664 35.6557 47.3459 32.7542 47.7812C29.9675 47.7138 28.4771 45.8937 26.6292 43.9999C26.3379 43.7318 26.0465 43.4637 25.7464 43.1874C23.5359 41.1272 22.721 39.6272 22.476 36.6193C22.4594 35.8934 22.4489 35.1674 22.4437 34.4413C22.4391 34.0536 22.4346 33.666 22.43 33.2665C22.4227 32.4487 22.4183 31.631 22.4164 30.8132C22.4105 29.5696 22.3859 28.3272 22.3606 27.0839C22.3559 26.2864 22.3523 25.4889 22.3499 24.6913C22.3401 24.3235 22.3304 23.9557 22.3203 23.5767C22.3444 20.7879 23.2017 19.0188 25.1292 16.9999C27.3618 15.5115 29.5113 15.7543 32.1292 15.9999Z" fill="#FF5E04"/>
<path d="M49.1046 0C49.1046 7.425 49.1046 14.85 49.1046 22.5C44.9756 22.5 43.3511 22.4135 40.5156 19.787C37.5496 16.568 37.3546 13.4825 37.4776 9.336C37.7316 6.397 38.4616 4.6035 40.7336 2.6135C43.6841 0.393 45.1486 0 49.1046 0Z" fill="#FF6007"/>
<path d="M44.8664 41.3441C45.3774 41.3311 45.3774 41.3311 45.8989 41.3186C47.3544 41.5746 47.9574 41.9686 48.9969 43.0001C49.1809 44.3236 49.2384 45.4361 49.1989 46.7561C49.1959 47.1201 49.1929 47.4841 49.1904 47.8591C49.1784 49.0211 49.1524 50.1821 49.1259 51.3441C49.1154 52.1321 49.1059 52.9201 49.0979 53.7081C49.0754 55.6391 49.0394 57.5696 48.9969 59.5001C46.8314 59.2651 45.5839 59.0111 44.0514 57.4901C43.7394 57.1851 43.4284 56.8801 43.1074 56.5656C42.7929 56.2451 42.4789 55.9241 42.1554 55.5941C41.6714 55.1216 41.6714 55.1216 41.1789 54.6396C39.1854 52.6576 37.8249 51.1816 37.3789 48.3751C37.7259 45.8541 38.8914 44.2816 40.7349 42.5001C42.1364 41.6586 43.2224 41.3531 44.8664 41.3441Z" fill="#DA5104"/>
<path d="M83.0055 10.6716C80.3718 11.6452 78.8406 13.1194 77.5878 15.6545C77.5403 16.9688 77.5222 18.2702 77.5257 19.5845C77.5248 19.9906 77.5239 20.3967 77.5229 20.815C77.521 21.6989 77.5199 22.5828 77.5197 23.4668C77.5181 25.3491 77.5075 27.2313 77.4975 29.1135C77.4788 32.619 77.4633 36.1243 77.4644 39.6298C77.4648 42.0672 77.4532 44.5042 77.4339 46.9415C77.4288 47.8682 77.428 48.7949 77.4318 49.7216C77.4528 55.4506 77.389 59.6913 73.259 64.0043C72.798 64.4103 72.3371 64.8162 71.8622 65.2345C71.167 65.8588 71.167 65.8588 70.4578 66.4958C69.2595 67.5543 69.2595 67.5543 67.7374 67.9751C68.1583 67.5608 68.5792 67.1465 69.0129 66.7196C69.5626 66.1728 70.1122 65.6258 70.6617 65.0788C70.9395 64.8061 71.2172 64.5334 71.5034 64.2525C73.3815 62.3752 74.0299 61.3228 74.3864 58.6633C74.3775 56.2377 73.1344 55.0016 71.5429 53.3086C69.9672 51.8624 68.5881 51.7911 66.523 51.8379C62.8777 52.3982 59.7817 56.4372 57.3021 58.9747C56.7959 59.481 56.7959 59.481 56.2796 59.9976C55.9497 60.3325 55.6199 60.6675 55.2801 61.0126C54.9879 61.3093 54.6957 61.6061 54.3947 61.9118C54.0844 62.2683 53.774 62.6248 53.4543 62.9922C53.0171 63.471 52.5798 63.9499 52.1293 64.4432C50.3279 67.0632 50.6397 70.0719 50.6646 73.1468C50.6623 73.7873 50.6599 74.4278 50.6575 75.0878C50.6539 76.4386 50.6591 77.789 50.6706 79.1398C50.6847 80.8652 50.6766 82.5896 50.6618 84.315C50.6508 85.9697 50.6585 87.6242 50.6646 89.2789C50.6572 90.204 50.6572 90.204 50.6495 91.1477C50.7136 95.9134 50.7136 95.9134 52.1876 97.7439C54.2877 99.6094 55.5235 100.077 58.4007 99.9903C60.4933 99.7198 61.5853 98.6495 62.9353 97.0939C64.3332 95.124 64.375 93.9422 64.4456 91.5154C64.4558 91.185 64.466 90.8546 64.4766 90.5142C64.5088 89.4582 64.5378 88.4022 64.5668 87.3461C64.588 86.6305 64.6095 85.9148 64.6312 85.1992C64.684 83.4442 64.7339 81.6892 64.7823 79.9341C65.4324 81.2495 66.0825 82.565 66.7523 83.9204C69.0607 83.6401 70.8094 82.6077 72.7549 81.3978C73.0813 81.1964 73.4077 80.995 73.744 80.7876C81.6213 75.8421 88.0477 69.6303 90.8858 60.5007C91.3651 58.121 91.457 55.7966 91.4655 53.3767C91.4687 52.9728 91.472 52.5689 91.4753 52.1528C91.485 50.8246 91.4907 49.4963 91.4957 48.168C91.4977 47.7127 91.4997 47.2574 91.5018 46.7883C91.512 44.3811 91.5191 41.9739 91.5237 39.5667C91.5292 37.0835 91.5461 34.6005 91.5656 32.1174C91.5785 30.204 91.5826 28.2907 91.5844 26.3772C91.5868 25.4618 91.5925 24.5463 91.6017 23.6309C91.6137 22.35 91.6132 21.0697 91.6098 19.7888C91.6161 19.4129 91.6224 19.0369 91.6289 18.6496C91.5978 15.4526 90.4142 13.7391 88.3001 11.4814C86.5169 10.4153 85.0024 10.3462 83.0055 10.6716Z" fill="#FF5E05"/>
<path d="M65.3569 16.1842C63.2063 17.0396 62.3814 18.13 61.3719 20.1886C61.2022 21.8511 61.2022 21.8511 61.226 23.7178C61.2281 24.0475 61.2302 24.3773 61.2324 24.7171C61.2407 25.7626 61.2594 26.8077 61.2785 27.8531C61.286 28.5652 61.2928 29.2772 61.2989 29.9892C61.3153 31.7279 61.3411 33.4664 61.3719 35.2049C61.0611 35.3487 60.7503 35.4926 60.4301 35.6409C58.9401 36.4422 58.5475 37.1443 57.885 38.7087C57.5042 40.7284 57.4334 42.4366 58.4863 44.2479C60.321 46.4835 61.8436 47.5643 64.7342 48C67.5105 47.9326 68.9952 46.1105 70.8362 44.2146C71.1264 43.9462 71.4167 43.6778 71.7157 43.4013C73.9179 41.3388 74.7297 39.8372 74.9738 36.826C74.9904 36.0993 75.0008 35.3725 75.006 34.6457C75.0105 34.2575 75.015 33.8694 75.0197 33.4696C75.0269 32.6509 75.0313 31.8322 75.0331 31.0135C75.0391 29.7686 75.0636 28.5249 75.0887 27.2802C75.0934 26.4819 75.097 25.6835 75.0994 24.8851C75.1092 24.5168 75.1189 24.1486 75.1289 23.7692C75.1049 20.9774 74.2508 19.2063 72.3306 17.1853C70.1063 15.6953 67.9649 15.9383 65.3569 16.1842Z" fill="#FF5E04"/>
<path d="M48.6289 0C48.6289 7.425 48.6289 14.85 48.6289 22.5C52.7035 22.5 54.3066 22.4135 57.1048 19.787C60.0317 16.568 60.2242 13.4825 60.1028 9.336C59.8521 6.397 59.1318 4.6035 56.8897 2.6135C53.978 0.393 52.5328 0 48.6289 0Z" fill="#FF6007"/>
<path d="M52.8514 41.5252C52.3547 41.5124 52.3547 41.5124 51.8479 41.5C50.4332 41.7534 49.8471 42.1435 48.8367 43.1647C48.6579 44.475 48.602 45.5764 48.6404 46.8832C48.6433 47.2436 48.6462 47.604 48.6487 47.9752C48.6603 49.1256 48.6856 50.275 48.7114 51.4254C48.7216 52.2056 48.7308 52.9857 48.7386 53.7658C48.7604 55.6775 48.7954 57.5888 48.8367 59.5C50.9415 59.2673 52.154 59.0159 53.6435 57.5101C53.9468 57.2081 54.2491 56.9062 54.5611 56.5948C54.8667 56.2775 55.1719 55.9597 55.4864 55.633C55.9568 55.1652 55.9568 55.1652 56.4355 54.688C58.3731 52.7258 59.6954 51.2645 60.1289 48.4861C59.7916 45.9902 58.6588 44.4334 56.867 42.6697C55.5048 41.8366 54.4493 41.5342 52.8514 41.5252Z" fill="#FF5C00"/>
<path d="M49.7788 59.2385C50.2057 59.2048 50.2057 59.2048 50.6414 59.1696C51.8275 58.7962 52.2894 58.369 53.0497 57.2989C53.0675 56.0294 53.0015 54.971 52.8335 53.725C52.7938 53.3806 52.754 53.0363 52.7136 52.6815C52.5847 51.5826 52.4442 50.4858 52.3032 49.3882C52.2138 48.6432 52.1253 47.898 52.038 47.1528C51.8216 45.3268 51.5941 43.5025 51.3611 41.6787C49.5815 42.0962 48.5684 42.449 47.4476 44.0268C47.219 44.3437 46.9911 44.6604 46.756 44.987C46.5268 45.3188 46.2981 45.6509 46.0624 45.9925C45.7077 46.4833 45.7077 46.4833 45.3468 46.984C43.8892 49.0398 42.9071 50.5596 42.8228 53.2566C43.3698 55.6119 44.5015 56.9956 46.2193 58.5161C47.4727 59.1865 48.4085 59.378 49.7788 59.2385Z" fill="#FF5C00"/>
</g>
<defs>
<clipPath id="clip0_528_540">
<rect width="100" height="100" fill="white" transform="translate(0.128906)"/>
</clipPath>
</defs>
</svg>
