<svg width="14" height="16" viewBox="0 0 14 16" fill="none" xmlns="http://www.w3.org/2000/svg">
<path d="M0 14.5C0 15.3281 0.671875 16 1.5 16H12.5C13.3281 16 14 15.3281 14 14.5V6H0V14.5ZM10 8.375C10 8.16875 10.1688 8 10.375 8H11.625C11.8312 8 12 8.16875 12 8.375V9.625C12 9.83125 11.8312 10 11.625 10H10.375C10.1688 10 10 9.83125 10 9.625V8.375ZM10 12.375C10 12.1688 10.1688 12 10.375 12H11.625C11.8312 12 12 12.1688 12 12.375V13.625C12 13.8312 11.8312 14 11.625 14H10.375C10.1688 14 10 13.8312 10 13.625V12.375ZM6 8.375C6 8.16875 6.16875 8 6.375 8H7.625C7.83125 8 8 8.16875 8 8.375V9.625C8 9.83125 7.83125 10 7.625 10H6.375C6.16875 10 6 9.83125 6 9.625V8.375ZM6 12.375C6 12.1688 6.16875 12 6.375 12H7.625C7.83125 12 8 12.1688 8 12.375V13.625C8 13.8312 7.83125 14 7.625 14H6.375C6.16875 14 6 13.8312 6 13.625V12.375ZM2 8.375C2 8.16875 2.16875 8 2.375 8H3.625C3.83125 8 4 8.16875 4 8.375V9.625C4 9.83125 3.83125 10 3.625 10H2.375C2.16875 10 2 9.83125 2 9.625V8.375ZM2 12.375C2 12.1688 2.16875 12 2.375 12H3.625C3.83125 12 4 12.1688 4 12.375V13.625C4 13.8312 3.83125 14 3.625 14H2.375C2.16875 14 2 13.8312 2 13.625V12.375ZM12.5 2H11V0.5C11 0.225 10.775 0 10.5 0H9.5C9.225 0 9 0.225 9 0.5V2H5V0.5C5 0.225 4.775 0 4.5 0H3.5C3.225 0 3 0.225 3 0.5V2H1.5C0.671875 2 0 2.67188 0 3.5V5H14V3.5C14 2.67188 13.3281 2 12.5 2Z" fill="#1F0171"/>
</svg>