<svg width="27" height="18" viewBox="0 0 27 18" fill="none" xmlns="http://www.w3.org/2000/svg">
<path d="M16.2653 11.8975C16.2653 12.2435 15.9014 12.5237 15.4521 12.5237H10.5725C10.1232 12.5237 9.75922 12.2435 9.75922 11.8975V10.019H5.79371e-05V15.6546C5.79371e-05 16.6565 1.13863 17.5332 2.43985 17.5332H23.5847C24.8859 17.5332 26.0245 16.6565 26.0245 15.6546V10.019H16.2653V11.8975ZM23.5847 3.75711H19.5184V1.87855C19.5184 0.876658 18.3798 0 17.0786 0H8.94596C7.64473 0 6.50617 0.876658 6.50617 1.87855V3.75711H2.43985C1.13863 3.75711 5.79371e-05 4.63377 5.79371e-05 5.63566V8.76658H26.0245V5.63566C26.0245 4.63377 24.8859 3.75711 23.5847 3.75711ZM16.2653 3.75711H9.75922V2.50474H16.2653V3.75711Z" fill="#1F0171"/>
</svg>
