<svg width="27" height="34" viewBox="0 0 27 34" fill="none" xmlns="http://www.w3.org/2000/svg">
<path d="M12.1126 33.314C1.89633 19.3263 0 17.8907 0 12.75C0 5.70835 6.04413 0 13.5 0C20.9559 0 27 5.70835 27 12.75C27 17.8907 25.1037 19.3263 14.8874 33.314C14.217 34.2287 12.783 34.2286 12.1126 33.314ZM13.5 18.0625C16.6066 18.0625 19.125 15.684 19.125 12.75C19.125 9.81597 16.6066 7.4375 13.5 7.4375C10.3934 7.4375 7.875 9.81597 7.875 12.75C7.875 15.684 10.3934 18.0625 13.5 18.0625Z" fill="#1F0171"/>
</svg>
