<svg width="50" height="50" viewBox="0 0 50 50" fill="none" xmlns="http://www.w3.org/2000/svg">
<path d="M25.0056 12.1806C17.9113 12.1806 12.1891 17.9042 12.1891 25C12.1891 32.0958 17.9113 37.8194 25.0056 37.8194C32.0998 37.8194 37.8221 32.0958 37.8221 25C37.8221 17.9042 32.0998 12.1806 25.0056 12.1806ZM25.0056 33.3343C20.4211 33.3343 16.6732 29.5967 16.6732 25C16.6732 20.4033 20.4099 16.6657 25.0056 16.6657C29.6012 16.6657 33.338 20.4033 33.338 25C33.338 29.5967 29.5901 33.3343 25.0056 33.3343ZM41.3358 11.6563C41.3358 13.3186 39.9972 14.6463 38.3464 14.6463C36.6843 14.6463 35.3569 13.3075 35.3569 11.6563C35.3569 10.005 36.6955 8.66618 38.3464 8.66618C39.9972 8.66618 41.3358 10.005 41.3358 11.6563ZM49.8243 14.691C49.6347 10.6856 48.72 7.13768 45.7864 4.21455C42.8639 1.29142 39.3168 0.376548 35.3123 0.175722C31.1852 -0.0585741 18.8148 -0.0585741 14.6877 0.175722C10.6944 0.365391 7.14724 1.28026 4.21361 4.20339C1.27998 7.12652 0.376464 10.6744 0.175683 14.6798C-0.0585611 18.8079 -0.0585611 31.181 0.175683 35.309C0.36531 39.3144 1.27998 42.8623 4.21361 45.7855C7.14724 48.7086 10.6832 49.6235 14.6877 49.8243C18.8148 50.0586 31.1852 50.0586 35.3123 49.8243C39.3168 49.6346 42.8639 48.7197 45.7864 45.7855C48.7089 42.8623 49.6235 39.3144 49.8243 35.309C50.0586 31.181 50.0586 18.819 49.8243 14.691ZM44.4925 39.7384C43.6224 41.9251 41.9381 43.6098 39.7407 44.4912C36.4501 45.7966 28.6419 45.4954 25.0056 45.4954C21.3692 45.4954 13.5499 45.7855 10.2705 44.4912C8.08422 43.621 6.39989 41.9363 5.51868 39.7384C4.21361 36.4471 4.51478 28.6372 4.51478 25C4.51478 21.3628 4.22476 13.5418 5.51868 10.2616C6.38873 8.07486 8.07306 6.39016 10.2705 5.50876C13.5611 4.20339 21.3692 4.50463 25.0056 4.50463C28.6419 4.50463 36.4612 4.21455 39.7407 5.50876C41.9269 6.379 43.6113 8.06371 44.4925 10.2616C45.7975 13.5529 45.4964 21.3628 45.4964 25C45.4964 28.6372 45.7975 36.4582 44.4925 39.7384Z" fill="#1F0171"/>
</svg>
