<svg width="137" height="30" viewBox="0 0 137 30" fill="none" xmlns="http://www.w3.org/2000/svg">
<path d="M44.0246 6.00082L37.0216 25.5279H31.003L24 6.00082H29.1186L34.0123 20.7435L38.9341 6.00082H44.0246ZM55.372 25.7227C53.5158 25.7227 51.8096 25.2961 50.2534 24.4431C48.7159 23.5901 47.4878 22.4032 46.5691 20.8826C45.669 19.3434 45.219 17.6188 45.219 15.7087C45.219 13.7987 45.669 12.0833 46.5691 10.5627C47.4878 9.04208 48.7159 7.85525 50.2534 7.00221C51.8096 6.14917 53.5158 5.72266 55.372 5.72266C57.2282 5.72266 58.9251 6.14917 60.4625 7.00221C62.0188 7.85525 63.2375 9.04208 64.1187 10.5627C65.0187 12.0833 65.4687 13.7987 65.4687 15.7087C65.4687 17.6188 65.0187 19.3434 64.1187 20.8826C63.2187 22.4032 62 23.5901 60.4625 24.4431C58.9251 25.2961 57.2282 25.7227 55.372 25.7227ZM55.372 21.3833C56.947 21.3833 58.2032 20.8641 59.1406 19.8256C60.0969 18.7871 60.575 17.4148 60.575 15.7087C60.575 13.9841 60.0969 12.6119 59.1406 11.5919C58.2032 10.5534 56.947 10.0342 55.372 10.0342C53.7783 10.0342 52.5033 10.5442 51.5471 11.5641C50.6096 12.584 50.1409 13.9656 50.1409 15.7087C50.1409 17.4334 50.6096 18.8149 51.5471 19.8534C52.5033 20.8733 53.7783 21.3833 55.372 21.3833ZM72.9534 21.8562H79.2533V25.5279H68.1441V6.00082H72.9534V21.8562ZM86.2721 6.00082V17.6837C86.2721 18.852 86.5627 19.7514 87.144 20.3819C87.7252 21.0124 88.5783 21.3277 89.7033 21.3277C90.8283 21.3277 91.6908 21.0124 92.2907 20.3819C92.8907 19.7514 93.1907 18.852 93.1907 17.6837V6.00082H98V17.6559C98 19.3991 97.625 20.8733 96.875 22.0787C96.125 23.2841 95.1126 24.1928 93.8376 24.8047C92.5814 25.4167 91.1751 25.7227 89.6189 25.7227C88.0627 25.7227 86.6658 25.4259 85.4284 24.8325C84.2096 24.2206 83.244 23.3119 82.5316 22.1065C81.8191 20.8826 81.4628 19.3991 81.4628 17.6559V6.00082H86.2721Z" fill="white"/>
<path d="M102 26H106.629L114.371 13.6638V26H119V6H114.371L106.629 18.3932V6H102V26Z" fill="white"/>
<g clip-path="url(#clip0_369_487)">
<path d="M3.08026 7.20499C3.66848 7.41015 4.01044 7.72079 4.29026 8.25499C4.30087 8.53193 4.30491 8.80616 4.30412 9.08312C4.30433 9.16869 4.30453 9.25425 4.30474 9.34241C4.30518 9.52867 4.30541 9.71493 4.30545 9.90118C4.30583 10.2978 4.30818 10.6944 4.31043 11.0911C4.31461 11.8297 4.31805 12.5684 4.31782 13.3071C4.31773 13.8207 4.32031 14.3342 4.32462 14.8478C4.32577 15.0431 4.32595 15.2383 4.3251 15.4336C4.32042 16.6408 4.33467 17.5344 5.25706 18.4433C5.36001 18.5288 5.46295 18.6144 5.56901 18.7025C5.72428 18.8341 5.72428 18.8341 5.88269 18.9683C6.15031 19.1913 6.15031 19.1913 6.49026 19.28C6.39625 19.1927 6.30224 19.1054 6.20538 19.0154C6.0826 18.9002 5.95986 18.785 5.83714 18.6697C5.7751 18.6122 5.71307 18.5548 5.64915 18.4956C5.2297 18.1 5.08487 17.8782 5.00526 17.3178C5.00725 16.8067 5.28488 16.5462 5.64034 16.1895C5.99224 15.8847 6.30027 15.8697 6.76148 15.8796C7.57562 15.9976 8.26708 16.8487 8.82089 17.3834C8.93394 17.4901 8.93394 17.4901 9.04927 17.599C9.12293 17.6696 9.19659 17.7401 9.27249 17.8129C9.33774 17.8754 9.403 17.9379 9.47023 18.0023C9.53954 18.0775 9.60885 18.1526 9.68026 18.23C9.77792 18.3309 9.87557 18.4318 9.97618 18.5358C10.3785 19.0878 10.3089 19.7218 10.3033 20.3698C10.3038 20.5047 10.3044 20.6397 10.3049 20.7788C10.3057 21.0634 10.3045 21.348 10.302 21.6326C10.2988 21.9962 10.3006 22.3596 10.3039 22.7231C10.3064 23.0718 10.3047 23.4205 10.3033 23.7692C10.305 23.9641 10.305 23.9641 10.3067 24.1629C10.2924 25.1672 10.2924 25.1672 9.96316 25.5529C9.49413 25.946 9.21813 26.0445 8.57554 26.0262C8.10816 25.9693 7.86429 25.7437 7.56276 25.4159C7.25055 25.0008 7.24122 24.7518 7.22546 24.2404C7.22317 24.1708 7.22089 24.1012 7.21853 24.0295C7.21134 23.8069 7.20485 23.5844 7.19839 23.3619C7.19364 23.2111 7.18884 23.0603 7.18399 22.9095C7.17221 22.5397 7.16107 22.1698 7.15026 21.8C7.00506 22.0772 6.85986 22.3544 6.71026 22.64C6.19471 22.5809 5.80415 22.3634 5.36964 22.1084C5.29674 22.066 5.22384 22.0236 5.14873 21.9798C3.3894 20.9377 1.95414 19.6288 1.32026 17.705C1.21321 17.2035 1.1927 16.7137 1.19079 16.2038C1.19007 16.1187 1.18935 16.0336 1.1886 15.9459C1.18645 15.666 1.18515 15.3861 1.18405 15.1062C1.1836 15.0103 1.18316 14.9144 1.18269 14.8155C1.18041 14.3083 1.17883 13.801 1.1778 13.2938C1.17658 12.7705 1.17279 12.2473 1.16843 11.724C1.16555 11.3209 1.16463 10.9177 1.16423 10.5145C1.1637 10.3216 1.16242 10.1287 1.16038 9.93577C1.1577 9.66587 1.1578 9.39608 1.15857 9.12616C1.15716 9.04695 1.15575 8.96773 1.1543 8.88611C1.16123 8.21243 1.42559 7.85137 1.89776 7.37562C2.29601 7.15099 2.63428 7.13641 3.08026 7.20499Z" fill="#FF5C00"/>
<path d="M7.03979 8.35999C7.5147 8.53943 7.69686 8.76817 7.91979 9.19999C7.95725 9.54875 7.95725 9.54875 7.95202 9.94032C7.95155 10.0095 7.95108 10.0787 7.9506 10.1499C7.94877 10.3693 7.94463 10.5885 7.94042 10.8078C7.93876 10.9572 7.93725 11.1065 7.9359 11.2559C7.93228 11.6206 7.92659 11.9853 7.91979 12.35C7.98842 12.3802 8.05705 12.4104 8.12776 12.4415C8.45679 12.6095 8.5435 12.7568 8.68979 13.085C8.7739 13.5087 8.78952 13.867 8.55702 14.247C8.15187 14.7159 7.81563 14.9427 7.17729 15.0341C6.56421 15.0199 6.23634 14.6377 5.82979 14.24C5.7657 14.1837 5.70161 14.1274 5.63557 14.0694C5.14926 13.6367 4.96999 13.3217 4.91609 12.6901C4.91243 12.5376 4.91013 12.3852 4.90897 12.2327C4.90798 12.1513 4.90699 12.0699 4.90596 11.986C4.90437 11.8142 4.90339 11.6425 4.90298 11.4708C4.90167 11.2096 4.89626 10.9487 4.89071 10.6876C4.88967 10.5201 4.88887 10.3527 4.88835 10.1852C4.8862 10.1079 4.88405 10.0307 4.88184 9.95112C4.88713 9.36547 5.07574 8.99395 5.49979 8.56999C5.99097 8.25742 6.46386 8.3084 7.03979 8.35999Z" fill="#FF5C00"/>
<path d="M10.7747 5C10.7747 6.55925 10.7747 8.1185 10.7747 9.725C9.86632 9.725 9.50893 9.70683 8.88512 9.15527C8.2326 8.47928 8.1897 7.83133 8.21676 6.96056C8.27264 6.34337 8.43324 5.96673 8.93308 5.54884C9.58219 5.08253 9.90438 5 10.7747 5Z" fill="#FF5C00"/>
<path d="M9.84256 13.6822C9.95498 13.6795 9.95498 13.6795 10.0697 13.6769C10.3899 13.7306 10.5226 13.8134 10.7513 14.03C10.7918 14.3079 10.8044 14.5416 10.7957 14.8188C10.7951 14.8952 10.7944 14.9716 10.7938 15.0504C10.7912 15.2944 10.7855 15.5382 10.7797 15.7822C10.7773 15.9477 10.7753 16.1132 10.7735 16.2787C10.7685 16.6842 10.7606 17.0896 10.7513 17.495C10.2749 17.4456 10.0004 17.3923 9.66326 17.0729C9.59462 17.0088 9.5262 16.9448 9.45558 16.8787C9.38639 16.8114 9.31731 16.744 9.24614 16.6747C9.13966 16.5755 9.13966 16.5755 9.03131 16.4743C8.59274 16.0581 8.29343 15.7481 8.19531 15.1587C8.27165 14.6293 8.52806 14.2991 8.93363 13.925C9.24196 13.7483 9.48088 13.6841 9.84256 13.6822Z" fill="#FF5C00"/>
<path d="M18.2327 7.24103C17.6533 7.44549 17.3165 7.75507 17.0408 8.28744C17.0304 8.56343 17.0264 8.83673 17.0272 9.11274C17.027 9.19801 17.0268 9.28328 17.0266 9.37114C17.0261 9.55676 17.0259 9.74238 17.0259 9.92801C17.0255 10.3233 17.0232 10.7186 17.021 11.1138C17.0168 11.85 17.0135 12.5861 17.0137 13.3222C17.0138 13.8341 17.0112 14.3459 17.007 14.8577C17.0059 15.0523 17.0057 15.2469 17.0065 15.4415C17.0111 16.6446 16.9971 17.5352 16.0885 18.4409C15.9871 18.5261 15.8857 18.6114 15.7812 18.6992C15.6283 18.8303 15.6283 18.8303 15.4722 18.9641C15.2086 19.1864 15.2086 19.1864 14.8737 19.2748C14.9663 19.1877 15.059 19.1007 15.1544 19.0111C15.2753 18.8963 15.3962 18.7814 15.5171 18.6665C15.5782 18.6093 15.6393 18.552 15.7023 18.493C16.1155 18.0988 16.2581 17.8778 16.3365 17.3193C16.3346 16.8099 16.0611 16.5503 15.711 16.1948C15.3643 15.8911 15.0609 15.8761 14.6066 15.886C13.8046 16.0036 13.1235 16.8518 12.578 17.3847C12.4666 17.491 12.4666 17.491 12.353 17.5995C12.2805 17.6698 12.2079 17.7402 12.1331 17.8126C12.0689 17.8749 12.0046 17.9373 11.9384 18.0015C11.8701 18.0763 11.8018 18.1512 11.7315 18.2283C11.6353 18.3289 11.5391 18.4295 11.44 18.5331C11.0437 19.0833 11.1123 19.7151 11.1177 20.3608C11.1172 20.4953 11.1167 20.6298 11.1162 20.7684C11.1154 21.0521 11.1165 21.3357 11.1191 21.6193C11.1222 21.9817 11.1204 22.3438 11.1171 22.7061C11.1147 23.0536 11.1164 23.4011 11.1177 23.7486C11.1161 23.9428 11.1161 23.9428 11.1144 24.141C11.1285 25.1418 11.1285 25.1418 11.4528 25.5262C11.9148 25.918 12.1867 26.0161 12.8197 25.9979C13.2801 25.9411 13.5203 25.7164 13.8173 25.3897C14.1248 24.976 14.134 24.7279 14.1495 24.2182C14.1518 24.1488 14.1541 24.0795 14.1564 24.008C14.1635 23.7862 14.1698 23.5644 14.1762 23.3427C14.1809 23.1924 14.1856 23.0421 14.1904 22.8918C14.202 22.5233 14.213 22.1547 14.2236 21.7861C14.3666 22.0624 14.5097 22.3386 14.657 22.6233C15.1649 22.5644 15.5496 22.3476 15.9776 22.0935C16.0494 22.0512 16.1212 22.0089 16.1952 21.9654C17.9282 20.9268 19.342 19.6223 19.9664 17.7051C20.0719 17.2054 20.0921 16.7173 20.0939 16.2091C20.0946 16.1243 20.0954 16.0395 20.0961 15.9521C20.0982 15.6731 20.0995 15.3942 20.1006 15.1153C20.101 15.0197 20.1015 14.924 20.1019 14.8255C20.1042 14.32 20.1057 13.8145 20.1067 13.309C20.1079 12.7875 20.1117 12.2661 20.116 11.7446C20.1188 11.3428 20.1197 10.941 20.1201 10.5392C20.1206 10.347 20.1219 10.1547 20.1239 9.96248C20.1265 9.69349 20.1264 9.42463 20.1257 9.15564C20.1271 9.07669 20.1285 8.99774 20.1299 8.9164C20.123 8.24502 19.8626 7.88519 19.3975 7.41107C19.0052 7.18721 18.672 7.17268 18.2327 7.24103Z" fill="#FF5C00"/>
<path d="M14.3502 8.39867C13.877 8.57831 13.6956 8.80729 13.4735 9.23958C13.4361 9.58872 13.4361 9.58872 13.4414 9.98072C13.4418 10.05 13.4423 10.1192 13.4428 10.1906C13.4446 10.4101 13.4487 10.6296 13.4529 10.8491C13.4546 10.9987 13.4561 11.1482 13.4574 11.2977C13.461 11.6629 13.4667 12.0279 13.4735 12.393C13.4051 12.4232 13.3367 12.4534 13.2663 12.4846C12.9385 12.6528 12.8521 12.8003 12.7063 13.1288C12.6226 13.553 12.607 13.9117 12.8386 14.292C13.2423 14.7615 13.5772 14.9885 14.2132 15.08C14.8239 15.0658 15.1506 14.6832 15.5556 14.2851C15.6195 14.2287 15.6833 14.1723 15.7491 14.1142C16.2336 13.6811 16.4122 13.3658 16.4659 12.7334C16.4695 12.5808 16.4718 12.4282 16.473 12.2756C16.474 12.1941 16.4749 12.1126 16.476 12.0286C16.4775 11.8567 16.4785 11.6848 16.4789 11.5128C16.4802 11.2514 16.4856 10.9902 16.4912 10.7288C16.4922 10.5612 16.493 10.3935 16.4935 10.2258C16.4957 10.1485 16.4978 10.0712 16.5 9.99153C16.4947 9.40524 16.3068 9.03331 15.8844 8.6089C15.395 8.29599 14.9239 8.34702 14.3502 8.39867Z" fill="#FF5C00"/>
<path d="M10.6702 5C10.6702 6.55925 10.6702 8.1185 10.6702 9.725C11.5666 9.725 11.9193 9.70683 12.5349 9.15527C13.1788 8.47928 13.2212 7.83133 13.1945 6.96056C13.1393 6.34337 12.9808 5.96673 12.4876 5.54884C11.847 5.08253 11.5291 5 10.6702 5Z" fill="#FF5C00"/>
<path d="M11.5991 13.7203C11.4899 13.7176 11.4899 13.7176 11.3784 13.715C11.0671 13.7682 10.9382 13.8501 10.7159 14.0646C10.6766 14.3397 10.6643 14.571 10.6727 14.8455C10.6734 14.9211 10.674 14.9968 10.6745 15.0748C10.6771 15.3164 10.6827 15.5578 10.6883 15.7993C10.6906 15.9632 10.6926 16.127 10.6943 16.2908C10.6991 16.6923 10.7068 17.0936 10.7159 17.495C11.179 17.4461 11.4457 17.3933 11.7734 17.0771C11.8401 17.0137 11.9066 16.9503 11.9753 16.8849C12.0425 16.8183 12.1097 16.7515 12.1788 16.6829C12.2823 16.5847 12.2823 16.5847 12.3876 16.4845C12.8139 16.0724 13.1048 15.7655 13.2002 15.1821C13.126 14.6579 12.8768 14.331 12.4826 13.9606C12.1829 13.7857 11.9507 13.7222 11.5991 13.7203Z" fill="#FF5C00"/>
</g>
<defs>
<clipPath id="clip0_369_487">
<rect width="22" height="21" fill="white" transform="translate(0 5)"/>
</clipPath>
</defs>
</svg>
