<svg width="92" height="91" viewBox="0 0 92 91" fill="none" xmlns="http://www.w3.org/2000/svg">
<g clip-path="url(#clip0_574_337)" filter="url(#filter0_dd_574_337)">
<path d="M16.8512 8.71522C19.1876 9.52607 20.5459 10.7538 21.6574 12.8652C21.6995 13.9598 21.7155 15.0437 21.7124 16.1383C21.7132 16.4765 21.714 16.8147 21.7149 17.1631C21.7166 17.8993 21.7175 18.6354 21.7177 19.3716C21.7192 20.9393 21.7285 22.5069 21.7375 24.0745C21.7541 26.994 21.7677 29.9134 21.7668 32.8329C21.7665 34.8629 21.7767 36.8926 21.7939 38.9225C21.7984 39.6943 21.7991 40.4661 21.7958 41.2379C21.7771 46.0093 21.8337 49.5411 25.4975 53.1332C25.9064 53.4713 26.3153 53.8094 26.7366 54.1577C27.3534 54.6777 27.3534 54.6777 27.9825 55.2082C29.0455 56.0898 29.0455 56.0898 30.3959 56.4402C30.0225 56.0952 29.649 55.7501 29.2643 55.3946C28.7766 54.9392 28.2891 54.4837 27.8016 54.028C27.5552 53.8009 27.3088 53.5739 27.0549 53.3399C25.3888 51.7763 24.8136 50.8999 24.4974 48.6849C24.5053 46.6648 25.608 45.6353 27.0199 44.2253C28.4177 43.0208 29.6412 42.9614 31.4731 43.0004C34.707 43.467 37.4535 46.8309 39.6532 48.9443C40.1023 49.366 40.1023 49.366 40.5604 49.7962C40.8529 50.0751 41.1455 50.3541 41.447 50.6416C41.7062 50.8887 41.9654 51.1358 42.2324 51.3904C42.5077 51.6874 42.783 51.9843 43.0667 52.2902C43.4546 52.689 43.8425 53.0878 44.2421 53.4987C45.8402 55.6808 45.5636 58.1866 45.5415 60.7475C45.5436 61.2809 45.5456 61.8144 45.5478 62.364C45.551 63.489 45.5464 64.6137 45.5361 65.7387C45.5237 67.1757 45.5309 68.6119 45.5439 70.0489C45.5538 71.427 45.5469 72.8049 45.5415 74.1831C45.5481 74.9535 45.5481 74.9535 45.5549 75.7395C45.498 79.7086 45.498 79.7086 44.1904 81.2331C42.3274 82.7868 41.2311 83.1759 38.6787 83.104C36.8222 82.8787 35.8535 81.9873 34.6559 80.6918C33.4158 79.0511 33.3787 78.0669 33.3161 76.0457C33.307 75.7706 33.2979 75.4954 33.2886 75.2119C33.26 74.3324 33.2343 73.4529 33.2086 72.5733C33.1897 71.9773 33.1706 71.3813 33.1514 70.7853C33.1046 69.3237 33.0603 67.862 33.0174 66.4002C32.4407 67.4958 31.8639 68.5914 31.2697 69.7202C29.2219 69.4868 27.6706 68.6269 25.9447 67.6193C25.6551 67.4516 25.3656 67.2839 25.0672 67.1111C18.0791 62.9923 12.3782 57.8187 9.8604 50.2152C9.43516 48.2333 9.3537 46.2974 9.34614 44.282C9.34327 43.9456 9.3404 43.6093 9.33744 43.2627C9.32887 42.1565 9.32373 41.0502 9.31936 39.944C9.31758 39.5648 9.3158 39.1856 9.31397 38.7949C9.30488 36.79 9.29862 34.7852 9.29451 32.7804C9.28966 30.7122 9.27461 28.6443 9.2573 26.5763C9.24587 24.9827 9.24221 23.3892 9.24064 21.7956C9.23852 21.0331 9.23344 20.2707 9.22534 19.5083C9.21469 18.4415 9.2151 17.3752 9.21813 16.3084C9.21254 15.9953 9.20694 15.6822 9.20117 15.3596C9.22873 12.697 10.2788 11.2699 12.1543 9.38959C13.7361 8.50176 15.0797 8.44415 16.8512 8.71522Z" fill="#FF5E05"/>
<path d="M32.5803 13.2797C34.4667 13.9889 35.1902 14.8929 36.0757 16.5997C36.2245 17.9781 36.2245 17.9781 36.2037 19.5258C36.2018 19.7992 36.2 20.0726 36.1981 20.3543C36.1908 21.2211 36.1743 22.0876 36.1576 22.9544C36.151 23.5447 36.1451 24.1351 36.1397 24.7254C36.1253 26.167 36.1027 27.6083 36.0757 29.0497C36.3483 29.169 36.6209 29.2883 36.9018 29.4112C38.2087 30.0755 38.5531 30.6576 39.1342 31.9547C39.4682 33.6293 39.5303 35.0455 38.6068 36.5472C36.9975 38.4008 35.6619 39.2969 33.1264 39.6581C30.6913 39.6022 29.3889 38.0915 27.7741 36.5197C27.5195 36.2971 27.265 36.0746 27.0027 35.8453C25.071 34.1353 24.359 32.8903 24.1448 30.3938C24.1303 29.7913 24.1212 29.1887 24.1166 28.586C24.1126 28.2643 24.1087 27.9425 24.1046 27.6109C24.0983 26.9322 24.0944 26.2534 24.0928 25.5747C24.0876 24.5425 24.0661 23.5113 24.044 22.4794C24.0399 21.8174 24.0367 21.1555 24.0347 20.4935C24.0261 20.1883 24.0176 19.883 24.0088 19.5684C24.0298 17.2537 24.779 15.7853 26.4633 14.1097C28.4143 12.8743 30.2926 13.0758 32.5803 13.2797Z" fill="#FF5E04"/>
<path d="M47.4148 0C47.4148 6.16275 47.4148 12.3255 47.4148 18.675C43.8067 18.675 42.3871 18.6032 39.9093 16.4232C37.3175 13.7514 37.1471 11.1905 37.2546 7.74888C37.4765 5.30951 38.1144 3.82091 40.0998 2.16921C42.6781 0.32619 43.9579 0 47.4148 0Z" fill="#FF6007"/>
<path d="M43.7109 34.3161C44.1575 34.3053 44.1575 34.3053 44.6132 34.2949C45.8851 34.5074 46.412 34.8344 47.3204 35.6906C47.4811 36.7891 47.5314 37.7124 47.4969 38.808C47.4943 39.1102 47.4916 39.4123 47.4894 39.7235C47.479 40.688 47.4562 41.6516 47.4331 42.6161C47.4239 43.2701 47.4156 43.9242 47.4086 44.5782C47.389 46.1809 47.3575 47.7833 47.3204 49.3856C45.428 49.1905 44.3379 48.9797 42.9987 47.7173C42.7261 47.4641 42.4543 47.211 42.1738 46.9499C41.899 46.6839 41.6246 46.4175 41.3419 46.1436C40.919 45.7514 40.919 45.7514 40.4886 45.3514C38.7466 43.7063 37.5577 42.4812 37.168 40.1518C37.4712 38.0594 38.4897 36.7542 40.1006 35.2756C41.3253 34.5771 42.2743 34.3236 43.7109 34.3161Z" fill="#DA5104"/>
<path d="M77.0386 8.85731C74.7372 9.66539 73.3992 10.889 72.3044 12.9931C72.2629 14.0839 72.2471 15.1641 72.2501 16.255C72.2493 16.592 72.2485 16.9291 72.2477 17.2763C72.246 18.01 72.2451 18.7436 72.2449 19.4773C72.2435 21.0396 72.2343 22.6018 72.2255 24.1641C72.2091 27.0736 72.1956 29.983 72.1966 32.8926C72.1969 34.9156 72.1868 36.9383 72.1699 38.9613C72.1654 39.7304 72.1648 40.4996 72.1681 41.2688C72.1864 46.0239 72.1306 49.5436 68.5217 53.1234C68.1189 53.4604 67.7161 53.7973 67.3011 54.1445C66.6936 54.6627 66.6936 54.6627 66.0738 55.1913C65.0267 56.0699 65.0267 56.0699 63.6966 56.4192C64.0644 56.0753 64.4323 55.7314 64.8112 55.3771C65.2916 54.9233 65.7719 54.4693 66.252 54.0152C66.4948 53.7889 66.7375 53.5626 66.9876 53.3294C68.6287 51.7712 69.1954 50.8978 69.5068 48.6904C69.4991 46.6772 68.4128 45.6512 67.022 44.246C65.6452 43.0456 64.44 42.9864 62.6354 43.0253C59.45 43.4903 56.7446 46.8427 54.5777 48.9488C54.1354 49.3691 54.1354 49.3691 53.6842 49.7978C53.396 50.0758 53.1077 50.3539 52.8108 50.6403C52.5555 50.8866 52.3002 51.1329 52.0371 51.3866C51.7659 51.6825 51.4947 51.9785 51.2153 52.2833C50.8333 52.6808 50.4512 53.0782 50.0575 53.4877C48.4833 55.6623 48.7558 58.1595 48.7776 60.7117C48.7755 61.2433 48.7735 61.7749 48.7714 62.3227C48.7682 63.4439 48.7727 64.5647 48.7828 65.6859C48.7951 67.118 48.788 68.5492 48.7752 69.9813C48.7655 71.3547 48.7723 72.7279 48.7776 74.1014C48.7711 74.8692 48.7711 74.8692 48.7644 75.6525C48.8204 79.608 48.8204 79.608 50.1085 81.1273C51.9436 82.6757 53.0235 83.0635 55.5377 82.9918C57.3664 82.7673 58.3206 81.8789 59.5003 80.5878C60.7219 78.9528 60.7584 77.9719 60.8201 75.9576C60.829 75.6834 60.8379 75.4092 60.8472 75.1267C60.8753 74.2502 60.9007 73.3737 60.926 72.4971C60.9446 71.9031 60.9633 71.3092 60.9823 70.7152C61.0284 69.2585 61.072 67.8018 61.1143 66.3451C61.6824 67.437 62.2505 68.5288 62.8358 69.6538C64.853 69.4212 66.3811 68.5642 68.0812 67.56C68.3664 67.3929 68.6517 67.2257 68.9455 67.0535C75.8291 62.9488 81.4447 57.793 83.9249 50.2154C84.3437 48.2403 84.424 46.311 84.4314 44.3025C84.4342 43.9673 84.4371 43.6321 84.44 43.2867C84.4484 42.1842 84.4535 41.0818 84.4578 39.9793C84.4595 39.6014 84.4613 39.2235 84.4631 38.8341C84.4721 36.8361 84.4782 34.8382 84.4823 32.8402C84.4871 30.7791 84.5019 28.7183 84.5189 26.6573C84.5302 25.0692 84.5338 23.4811 84.5353 21.8929C84.5374 21.1331 84.5424 20.3733 84.5504 19.6135C84.5609 18.5504 84.5605 17.4877 84.5575 16.4246C84.563 16.1125 84.5685 15.8005 84.5742 15.479C84.5471 12.8255 83.5127 11.4033 81.6653 9.52938C80.1071 8.64458 78.7836 8.58717 77.0386 8.85731Z" fill="#FF5E05"/>
<path d="M61.6169 13.4322C59.7377 14.1422 59.0169 15.0472 58.1347 16.7558C57.9864 18.1357 57.9864 18.1357 58.0072 19.6851C58.009 19.9588 58.0109 20.2325 58.0128 20.5145C58.02 21.3823 58.0364 22.2497 58.0531 23.1174C58.0596 23.7084 58.0656 24.2994 58.0709 24.8904C58.0853 26.3335 58.1078 27.7764 58.1347 29.2193C57.8631 29.3388 57.5915 29.4582 57.3117 29.5812C56.0097 30.2463 55.6666 30.829 55.0877 32.1275C54.7549 33.8039 54.693 35.2217 55.6131 36.725C57.2163 38.5806 58.5469 39.4777 61.0728 39.8393C63.4989 39.7833 64.7963 38.271 66.4051 36.6975C66.6587 36.4747 66.9123 36.2519 67.1736 36.0223C69.098 34.3105 69.8074 33.0642 70.0207 30.5649C70.0352 29.9617 70.0443 29.3585 70.0489 28.7552C70.0528 28.4331 70.0567 28.1109 70.0608 27.779C70.0671 27.0996 70.071 26.42 70.0726 25.7405C70.0777 24.7072 70.0992 23.675 70.1211 22.6419C70.1253 21.9792 70.1284 21.3166 70.1305 20.6539C70.139 20.3483 70.1475 20.0427 70.1562 19.7278C70.1353 17.4105 69.3889 15.9405 67.7109 14.2631C65.7673 13.0264 63.896 13.2281 61.6169 13.4322Z" fill="#FF5E04"/>
<path d="M46.9986 0C46.9986 6.16275 46.9986 12.3255 46.9986 18.675C50.5592 18.675 51.9601 18.6032 54.4052 16.4232C56.9629 13.7514 57.1311 11.1905 57.025 7.74888C56.806 5.30951 56.1765 3.82091 54.2172 2.16921C51.6729 0.32619 50.41 0 46.9986 0Z" fill="#FF6007"/>
<path d="M50.6884 34.4663C50.2544 34.4556 50.2544 34.4556 49.8115 34.4453C48.5752 34.6557 48.0631 34.9794 47.1802 35.827C47.0239 36.9146 46.9751 37.8287 47.0086 38.9134C47.0112 39.2125 47.0137 39.5116 47.0158 39.8197C47.026 40.7746 47.0481 41.7286 47.0706 42.6834C47.0795 43.3309 47.0876 43.9784 47.0944 44.6259C47.1135 46.2127 47.1441 47.799 47.1802 49.3853C49.0194 49.1922 50.079 48.9835 51.3806 47.7337C51.6456 47.483 51.9098 47.2324 52.1824 46.974C52.4495 46.7106 52.7162 46.4469 52.991 46.1757C53.402 45.7874 53.402 45.7874 53.8203 45.3914C55.5135 43.7627 56.669 42.5499 57.0479 40.2437C56.7531 38.1722 55.7632 36.8801 54.1975 35.4162C53.0071 34.7247 52.0847 34.4737 50.6884 34.4663Z" fill="#FF5C00"/>
<path d="M48.0041 49.1684C48.3772 49.1405 48.3772 49.1405 48.7579 49.1113C49.7944 48.8014 50.198 48.4468 50.8624 47.5586C50.8779 46.5049 50.8203 45.6265 50.6735 44.5923C50.6388 44.3065 50.604 44.0207 50.5687 43.7262C50.456 42.8141 50.3333 41.9038 50.2101 40.9927C50.132 40.3744 50.0546 39.7559 49.9783 39.1373C49.7892 37.6218 49.5904 36.1076 49.3868 34.5939C47.8317 34.9404 46.9464 35.2332 45.967 36.5428C45.7672 36.8058 45.5681 37.0687 45.3626 37.3398C45.1624 37.6151 44.9625 37.8908 44.7566 38.1743C44.4466 38.5817 44.4466 38.5817 44.1312 38.9972C42.8575 40.7035 41.9992 41.965 41.9256 44.2035C42.4036 46.1584 43.3925 47.3069 44.8936 48.5689C45.989 49.1254 46.8067 49.2842 48.0041 49.1684Z" fill="#FF5C00"/>
</g>
<defs>
<filter id="filter0_dd_574_337" x="0.617188" y="0" width="95.3848" height="91" filterUnits="userSpaceOnUse" color-interpolation-filters="sRGB">
<feFlood flood-opacity="0" result="BackgroundImageFix"/>
<feColorMatrix in="SourceAlpha" type="matrix" values="0 0 0 0 0 0 0 0 0 0 0 0 0 0 0 0 0 0 127 0" result="hardAlpha"/>
<feOffset dy="4"/>
<feGaussianBlur stdDeviation="2"/>
<feComposite in2="hardAlpha" operator="out"/>
<feColorMatrix type="matrix" values="0 0 0 0 0 0 0 0 0 0 0 0 0 0 0 0 0 0 0.25 0"/>
<feBlend mode="normal" in2="BackgroundImageFix" result="effect1_dropShadow_574_337"/>
<feColorMatrix in="SourceAlpha" type="matrix" values="0 0 0 0 0 0 0 0 0 0 0 0 0 0 0 0 0 0 127 0" result="hardAlpha"/>
<feOffset dy="4"/>
<feGaussianBlur stdDeviation="2"/>
<feComposite in2="hardAlpha" operator="out"/>
<feColorMatrix type="matrix" values="0 0 0 0 0 0 0 0 0 0 0 0 0 0 0 0 0 0 0.25 0"/>
<feBlend mode="normal" in2="effect1_dropShadow_574_337" result="effect2_dropShadow_574_337"/>
<feBlend mode="normal" in="SourceGraphic" in2="effect2_dropShadow_574_337" result="shape"/>
</filter>
<clipPath id="clip0_574_337">
<rect width="87.385" height="83" fill="white" transform="translate(4.61719)"/>
</clipPath>
</defs>
</svg>
