<svg width="14" height="24" viewBox="0 0 14 24" fill="none" xmlns="http://www.w3.org/2000/svg">
<path d="M12.7585 0.36986C12.6406 0.252611 12.5006 0.159595 12.3465 0.0961307C12.1924 0.0326666 12.0272 0 11.8604 0C11.6936 0 11.5284 0.0326666 11.3743 0.0961307C11.2202 0.159595 11.0802 0.252611 10.9623 0.36986L0.371482 10.889C0.253434 11.0061 0.159782 11.1451 0.0958862 11.2982C0.0319901 11.4513 -0.000897408 11.6153 -0.000897408 11.781C-0.000897408 11.9467 0.0319901 12.1108 0.0958862 12.2639C0.159782 12.4169 0.253434 12.556 0.371482 12.673L10.9623 23.1922C11.0802 23.3093 11.2202 23.4023 11.3743 23.4657C11.5284 23.5291 11.6936 23.5617 11.8604 23.5617C12.0272 23.5617 12.1923 23.5291 12.3464 23.4657C12.5005 23.4023 12.6405 23.3093 12.7585 23.1922C12.8764 23.0751 12.97 22.936 13.0338 22.7829C13.0976 22.6299 13.1305 22.4658 13.1305 22.3002C13.1305 22.1345 13.0976 21.9705 13.0338 21.8174C12.97 21.6644 12.8764 21.5253 12.7585 21.4081L3.06748 11.781L12.7585 2.15391C12.8765 2.03683 12.9702 1.89778 13.0341 1.74471C13.098 1.59165 13.1309 1.42758 13.1309 1.26188C13.1309 1.09619 13.098 0.932115 13.0341 0.779053C12.9702 0.625991 12.8765 0.486942 12.7585 0.36986Z" fill="#303030"/>
<path d="M12.4059 0.724361L12.4064 0.724862C12.4778 0.795663 12.5342 0.879563 12.5727 0.971671C12.6111 1.06377 12.6309 1.16238 12.6309 1.26188C12.6309 1.36139 12.6111 1.46 12.5727 1.5521C12.5342 1.6442 12.4778 1.7281 12.4064 1.79891L12.4061 1.79919L2.71509 11.4263L2.35802 11.781L2.71509 12.1357L12.4061 21.7629L12.4061 21.7629C12.4775 21.8338 12.5339 21.9177 12.5723 22.0099C12.6108 22.102 12.6305 22.2006 12.6305 22.3002C12.6305 22.3997 12.6108 22.4983 12.5723 22.5905C12.5339 22.6826 12.4775 22.7666 12.4061 22.8374C12.3348 22.9083 12.2499 22.9647 12.1562 23.0033C12.0625 23.0418 11.962 23.0617 11.8604 23.0617C11.7588 23.0617 11.6582 23.0418 11.5646 23.0033C11.4709 22.9647 11.386 22.9083 11.3146 22.8374L0.723833 12.3183L0.723579 12.318C0.652194 12.2472 0.595746 12.1633 0.557296 12.0712C0.518848 11.9791 0.499103 11.8805 0.499103 11.781C0.499103 11.6815 0.518848 11.5829 0.557296 11.4908C0.595745 11.3987 0.652193 11.3148 0.723581 11.244L0.723833 11.2438L11.3146 0.724612L11.3149 0.724361C11.3862 0.653454 11.471 0.597023 11.5647 0.55846C11.6583 0.519894 11.7588 0.5 11.8604 0.5C11.962 0.5 12.0625 0.519894 12.1561 0.55846C12.2497 0.597023 12.3346 0.653454 12.4059 0.724361Z" stroke="#100074" stroke-opacity="0.63"/>
</svg>
