<svg width="200" height="51" viewBox="0 0 200 51" fill="none" xmlns="http://www.w3.org/2000/svg">
<g clip-path="url(#clip0_477_740)">
<path d="M7.00024 5.93444C8.3371 6.42013 9.11429 7.15556 9.75024 8.42024C9.77435 9.07586 9.78353 9.7251 9.78174 10.3808C9.78221 10.5833 9.78267 10.7859 9.78315 10.9946C9.78416 11.4356 9.78467 11.8765 9.78477 12.3175C9.78562 13.2565 9.79096 14.1955 9.79608 15.1344C9.80558 16.8832 9.8134 18.6319 9.81287 20.3806C9.81267 21.5966 9.81854 22.8123 9.82834 24.0282C9.83094 24.4905 9.83134 24.9528 9.82942 25.4151C9.81878 28.2731 9.85116 30.3886 11.9475 32.5402C12.1815 32.7427 12.4154 32.9453 12.6565 33.1539C13.0094 33.4654 13.0094 33.4654 13.3694 33.7831C13.9776 34.3112 13.9776 34.3112 14.7502 34.5211C14.5366 34.3144 14.3229 34.1077 14.1028 33.8948C13.8237 33.622 13.5448 33.3492 13.2659 33.0762C13.1249 32.9402 12.9839 32.8042 12.8386 32.664C11.8853 31.7275 11.5562 31.2025 11.3752 29.8758C11.3798 28.6658 12.0107 28.0491 12.8186 27.2045C13.6184 26.483 14.3184 26.4475 15.3666 26.4708C17.217 26.7503 18.7885 28.7653 20.0471 30.0311C20.304 30.2837 20.304 30.2837 20.5662 30.5414C20.7336 30.7085 20.901 30.8756 21.0735 31.0478C21.2218 31.1958 21.3701 31.3438 21.5229 31.4963C21.6804 31.6742 21.8379 31.8521 22.0002 32.0353C22.2222 32.2742 22.4441 32.5131 22.6728 32.7592C23.5872 34.0662 23.4289 35.5672 23.4163 37.1011C23.4175 37.4206 23.4187 37.7402 23.4199 38.0694C23.4217 38.7432 23.4191 39.4169 23.4132 40.0908C23.4061 40.9515 23.4102 41.8118 23.4177 42.6725C23.4233 43.498 23.4194 44.3234 23.4163 45.1489C23.4201 45.6103 23.4201 45.6103 23.4239 46.0811C23.3914 48.4585 23.3914 48.4585 22.6432 49.3717C21.5772 50.3024 20.9499 50.5355 19.4895 50.4923C18.4273 50.3574 17.873 49.8235 17.1877 49.0475C16.4782 48.0647 16.457 47.4752 16.4211 46.2645C16.4159 46.0997 16.4108 45.9349 16.4054 45.7651C16.389 45.2383 16.3743 44.7115 16.3596 44.1846C16.3488 43.8276 16.3379 43.4706 16.3269 43.1136C16.3001 42.2381 16.2748 41.3626 16.2502 40.487C15.9202 41.1433 15.5902 41.7995 15.2502 42.4757C14.0785 42.3358 13.1909 41.8208 12.2034 41.2172C12.0377 41.1168 11.872 41.0163 11.7013 40.9128C7.70283 38.4457 4.44087 35.3468 3.00024 30.7924C2.75693 29.6053 2.71032 28.4457 2.70599 27.2385C2.70435 27.037 2.70271 26.8355 2.70102 26.6279C2.69611 25.9653 2.69317 25.3027 2.69067 24.6401C2.68965 24.4129 2.68864 24.1858 2.68759 23.9518C2.68239 22.7509 2.6788 21.55 2.67645 20.3491C2.67368 19.1104 2.66507 17.8717 2.65516 16.633C2.64862 15.6784 2.64653 14.7239 2.64563 13.7694C2.64442 13.3127 2.64151 12.856 2.63687 12.3994C2.63078 11.7604 2.63101 11.1217 2.63275 10.4827C2.62955 10.2951 2.62635 10.1076 2.62305 9.91436C2.63881 8.31947 3.23963 7.46468 4.31274 6.33838C5.21785 5.80659 5.98664 5.77208 7.00024 5.93444Z" fill="#FF5C00"/>
<path d="M16.0001 8.66881C17.0795 9.09363 17.4935 9.63513 18.0001 10.6575C18.0853 11.4831 18.0853 11.4831 18.0734 12.4101C18.0723 12.5739 18.0713 12.7377 18.0702 12.9064C18.066 13.4256 18.0566 13.9446 18.047 14.4638C18.0433 14.8174 18.0398 15.171 18.0368 15.5247C18.0285 16.3881 18.0156 17.2515 18.0001 18.1148C18.1561 18.1863 18.3121 18.2578 18.4728 18.3314C19.2206 18.7293 19.4177 19.078 19.7501 19.8549C19.9413 20.8579 19.9768 21.7063 19.4484 22.6058C18.5276 23.716 17.7634 24.2528 16.3126 24.4692C14.9193 24.4357 14.1741 23.5308 13.2501 22.5893C13.1045 22.456 12.9588 22.3227 12.8087 22.1853C11.7035 21.161 11.2961 20.4153 11.1735 18.9199C11.1652 18.5591 11.16 18.1981 11.1574 17.8371C11.1551 17.6444 11.1529 17.4516 11.1505 17.2531C11.1469 16.8465 11.1447 16.4399 11.1438 16.0333C11.1408 15.4151 11.1285 14.7974 11.1159 14.1793C11.1135 13.7828 11.1117 13.3863 11.1105 12.9898C11.1056 12.807 11.1007 12.6241 11.0957 12.4357C11.1077 11.0492 11.5364 10.1697 12.5001 9.16597C13.6165 8.42599 14.6912 8.54668 16.0001 8.66881Z" fill="#FF5C00"/>
<path d="M24.4888 0.714294C24.4888 4.4057 24.4888 8.09711 24.4888 11.9004C22.4243 11.9004 21.6121 11.8574 20.1943 10.5516C18.7113 8.95123 18.6138 7.41724 18.6753 5.35577C18.8023 3.89462 19.1673 3.00297 20.3033 2.01362C21.7786 0.909678 22.5108 0.714294 24.4888 0.714294Z" fill="#FF5C00"/>
<path d="M22.3687 21.2688C22.6242 21.2624 22.6243 21.2624 22.885 21.2562C23.6128 21.3834 23.9143 21.5793 24.434 22.0921C24.526 22.7501 24.5547 23.3032 24.535 23.9595C24.5335 24.1404 24.532 24.3214 24.5308 24.5078C24.5248 25.0855 24.5118 25.6627 24.4985 26.2404C24.4933 26.6322 24.4885 27.024 24.4845 27.4157C24.4733 28.3757 24.4553 29.3355 24.434 30.2953C23.3513 30.1784 22.7275 30.0522 21.9613 29.296C21.8053 29.1443 21.6498 28.9927 21.4893 28.8363C21.332 28.677 21.175 28.5174 21.0133 28.3534C20.7713 28.1185 20.7712 28.1185 20.525 27.8788C19.5282 26.8935 18.848 26.1596 18.625 24.7644C18.7985 23.511 19.3812 22.7292 20.303 21.8436C21.0037 21.4252 21.5467 21.2733 22.3687 21.2688Z" fill="#FF5C00"/>
<path d="M41.4383 6.01978C40.1214 6.50381 39.3559 7.23672 38.7294 8.49708C38.7057 9.15046 38.6966 9.79748 38.6984 10.4509C38.6979 10.6528 38.6975 10.8547 38.697 11.0626C38.696 11.5021 38.6955 11.9415 38.6954 12.381C38.6946 13.3168 38.6893 14.2525 38.6843 15.1883C38.6749 16.9311 38.6672 18.6738 38.6677 20.4166C38.6679 21.6284 38.6622 22.84 38.6525 24.0517C38.6499 24.5124 38.6495 24.9731 38.6514 25.4338C38.6619 28.2821 38.63 30.3903 36.565 32.5346C36.3346 32.7364 36.1041 32.9383 35.8667 33.1462C35.5191 33.4566 35.5191 33.4566 35.1644 33.7733C34.5653 34.2995 34.5653 34.2995 33.8042 34.5087C34.0147 34.3027 34.2252 34.0968 34.442 33.8845C34.7169 33.6127 34.9917 33.3408 35.2664 33.0688C35.4053 32.9332 35.5442 32.7977 35.6873 32.658C36.6263 31.7247 36.9505 31.2015 37.1287 29.8793C37.1243 28.6734 36.5027 28.0588 35.707 27.2171C34.9192 26.4981 34.2296 26.4627 33.1971 26.486C31.3744 26.7645 29.8264 28.7726 28.5866 30.0341C28.3335 30.2858 28.3335 30.2858 28.0753 30.5426C27.9104 30.7091 27.7455 30.8757 27.5756 31.0473C27.4295 31.1948 27.2834 31.3423 27.1329 31.4943C26.9777 31.6715 26.8226 31.8488 26.6627 32.0314C26.4441 32.2695 26.2255 32.5075 26.0002 32.7528C25.0995 34.0554 25.2554 35.5512 25.2679 37.0799C25.2667 37.3983 25.2655 37.7168 25.2643 38.0448C25.2625 38.7164 25.2651 39.3878 25.2709 40.0593C25.2779 40.9171 25.2738 41.7745 25.2665 42.6323C25.2609 43.4549 25.2648 44.2774 25.2679 45.1001C25.2641 45.56 25.2641 45.56 25.2603 46.0292C25.2924 48.3985 25.2924 48.3985 26.0294 49.3086C27.0794 50.236 27.6973 50.4683 29.1359 50.4253C30.1822 50.2909 30.7282 49.7588 31.4032 48.9854C32.1022 48.006 32.1231 47.4185 32.1583 46.212C32.1634 46.0477 32.1686 45.8835 32.1738 45.7143C32.1899 45.1893 32.2045 44.6642 32.2189 44.1392C32.2296 43.7834 32.2403 43.4276 32.2512 43.0718C32.2775 42.1993 32.3025 41.3268 32.3267 40.4542C32.6517 41.1082 32.9768 41.7622 33.3117 42.4361C34.4659 42.2967 35.3403 41.7834 36.313 41.1819C36.4762 41.0818 36.6394 40.9817 36.8076 40.8786C40.7462 38.4199 43.9594 35.3316 45.3784 30.7928C45.6181 29.6097 45.664 28.454 45.6683 27.251C45.6699 27.0502 45.6715 26.8494 45.6732 26.6425C45.678 25.9822 45.6809 25.3218 45.6834 24.6614C45.6844 24.4351 45.6854 24.2087 45.6864 23.9755C45.6915 22.7787 45.6951 21.582 45.6974 20.3852C45.7001 19.1507 45.7086 17.9162 45.7184 16.6817C45.7248 15.7305 45.7269 14.7792 45.7278 13.828C45.729 13.3728 45.7318 12.9177 45.7364 12.4626C45.7424 11.8258 45.7422 11.1893 45.7404 10.5525C45.7436 10.3656 45.7467 10.1787 45.75 9.98609C45.7345 8.39666 45.1426 7.54479 44.0856 6.42234C43.194 5.89236 42.4367 5.85797 41.4383 6.01978Z" fill="#FF5C00"/>
<path d="M32.614 8.7604C31.5387 9.18568 31.1263 9.72778 30.6215 10.7512C30.5367 11.5778 30.5367 11.5778 30.5485 12.5058C30.5496 12.6697 30.5506 12.8337 30.5517 13.0026C30.5559 13.5224 30.5653 14.042 30.5748 14.5617C30.5785 14.9157 30.582 15.2697 30.585 15.6237C30.5932 16.4881 30.6061 17.3524 30.6215 18.2167C30.4661 18.2882 30.3107 18.3598 30.1506 18.4335C29.4056 18.8318 29.2093 19.1809 28.8781 19.9586C28.6876 20.9628 28.6523 21.812 29.1787 22.7125C30.096 23.824 30.8573 24.3613 32.3027 24.5779C33.6908 24.5444 34.4331 23.6385 35.3536 22.696C35.4988 22.5625 35.6439 22.4291 35.7934 22.2916C36.8945 21.2662 37.3004 20.5197 37.4224 19.0227C37.4307 18.6614 37.4359 18.3 37.4386 17.9387C37.4408 17.7457 37.4431 17.5528 37.4454 17.354C37.449 16.947 37.4512 16.54 37.4521 16.1329C37.4551 15.514 37.4673 14.8957 37.4799 14.2769C37.4823 13.88 37.4841 13.483 37.4853 13.0861C37.4901 12.903 37.495 12.72 37.5 12.5314C37.488 11.1434 37.061 10.2629 36.1008 9.2581C34.9887 8.51731 33.918 8.63814 32.614 8.7604Z" fill="#FF5C00"/>
<path d="M24.25 0.714294C24.25 4.4057 24.25 8.09711 24.25 11.9004C26.2873 11.9004 27.0889 11.8574 28.4879 10.5516C29.9514 8.95123 30.0476 7.41724 29.9869 5.35577C29.8616 3.89462 29.5014 3.00297 28.3804 2.01362C26.9246 0.909678 26.202 0.714294 24.25 0.714294Z" fill="#FF5C00"/>
<path d="M26.3612 21.359C26.1129 21.3526 26.1129 21.3526 25.8595 21.3464C25.1521 21.4724 24.8591 21.6664 24.3539 22.1741C24.2645 22.8255 24.2366 23.3731 24.2557 24.0228C24.2572 24.2019 24.2587 24.3811 24.2599 24.5656C24.2657 25.1376 24.2783 25.709 24.2912 26.2809C24.2963 26.6688 24.3009 27.0567 24.3048 27.4445C24.3158 28.3949 24.3333 29.3451 24.3539 30.2953C25.4063 30.1796 26.0126 30.0546 26.7573 29.306C26.9089 29.1559 27.0601 29.0057 27.2161 28.851C27.3689 28.6932 27.5215 28.5352 27.6787 28.3728C27.9139 28.1402 27.9139 28.1402 28.1533 27.903C29.1221 26.9274 29.7833 26.201 30 24.8196C29.8314 23.5788 29.265 22.8048 28.3691 21.928C27.688 21.5138 27.1602 21.3634 26.3612 21.359Z" fill="#FF5C00"/>
</g>
<path d="M81.4576 7.73143L70.4563 44.1368H61.0013L50 7.73143H58.0411L65.7288 35.2169L73.4606 7.73143H81.4576ZM99.2837 44.4998C96.3677 44.4998 93.6873 43.7046 91.2426 42.1142C88.8273 40.5239 86.898 38.3112 85.4548 35.4762C84.0408 32.6067 83.3338 29.3914 83.3338 25.8304C83.3338 22.2694 84.0408 19.0714 85.4548 16.2364C86.898 13.4014 88.8273 11.1887 91.2426 9.59836C93.6873 8.00801 96.3677 7.21283 99.2837 7.21283C102.2 7.21283 104.865 8.00801 107.281 9.59836C109.725 11.1887 111.64 13.4014 113.024 16.2364C114.438 19.0714 115.145 22.2694 115.145 25.8304C115.145 29.3914 114.438 32.6067 113.024 35.4762C111.611 38.3112 109.696 40.5239 107.281 42.1142C104.865 43.7046 102.2 44.4998 99.2837 44.4998ZM99.2837 36.4097C101.758 36.4097 103.731 35.4417 105.204 33.5056C106.706 31.5695 107.457 29.0111 107.457 25.8304C107.457 22.6151 106.706 20.0567 105.204 18.1552C103.731 16.2191 101.758 15.251 99.2837 15.251C96.7801 15.251 94.7772 16.2018 93.275 18.1033C91.8022 20.0048 91.0659 22.5805 91.0659 25.8304C91.0659 29.0457 91.8022 31.6213 93.275 33.5574C94.7772 35.4589 96.7801 36.4097 99.2837 36.4097ZM126.903 37.2913H136.8V44.1368H119.348V7.73143H126.903V37.2913ZM147.826 7.73143V29.5124C147.826 31.6905 148.283 33.3673 149.196 34.5428C150.109 35.7182 151.449 36.306 153.216 36.306C154.984 36.306 156.339 35.7182 157.281 34.5428C158.224 33.3673 158.695 31.6905 158.695 29.5124V7.73143H166.25V29.4605C166.25 32.7104 165.661 35.4589 164.483 37.7062C163.305 39.9534 161.714 41.6475 159.711 42.7884C157.738 43.9293 155.529 44.4998 153.084 44.4998C150.639 44.4998 148.445 43.9466 146.501 42.8403C144.586 41.6994 143.069 40.0053 141.95 37.758C140.831 35.4762 140.271 32.7104 140.271 29.4605V7.73143H147.826Z" fill="white"/>
<path d="M170 44.4998H178.169L191.831 21.5008V44.4998H200V7.21283H191.831L178.169 30.318V7.21283H170V44.4998Z" fill="white"/>
<defs>
<clipPath id="clip0_477_740">
<rect width="50" height="49.7159" fill="white" transform="translate(0 0.714294)"/>
</clipPath>
</defs>
</svg>
