<svg width="1452" height="325" viewBox="0 0 1452 325" fill="none" xmlns="http://www.w3.org/2000/svg">
<g clip-path="url(#clip0_768_310)">
<path d="M45.4987 34.1249C54.1882 37.3 59.2399 42.1075 63.3737 50.3749C63.5304 54.6609 63.59 58.905 63.5784 63.1913C63.5814 64.5154 63.5844 65.8396 63.5876 67.204C63.5941 70.0865 63.5974 72.9691 63.5981 75.8517C63.6036 81.9902 63.6383 88.1283 63.6716 94.2667C63.7333 105.698 63.7842 117.13 63.7807 128.562C63.7794 136.51 63.8176 144.458 63.8813 152.406C63.8982 155.428 63.9008 158.451 63.8883 161.473C63.8191 180.156 64.0296 193.985 77.6559 208.051C79.1766 209.375 80.6974 210.698 82.2643 212.062C84.558 214.099 84.558 214.099 86.8981 216.176C90.8516 219.628 90.8516 219.628 95.8736 221C94.4848 219.649 93.096 218.298 91.6652 216.906C89.8514 215.122 88.0381 213.339 86.2252 211.555C85.3088 210.665 84.3923 209.776 83.4481 208.86C77.2516 202.738 75.1122 199.306 73.9361 190.633C73.9654 182.723 78.0669 178.692 83.318 173.17C88.5165 168.454 93.0669 168.222 99.8802 168.374C111.907 170.201 122.122 183.373 130.303 191.648C131.973 193.3 131.973 193.3 133.677 194.984C134.765 196.076 135.854 197.169 136.975 198.294C137.939 199.262 138.903 200.23 139.896 201.227C140.92 202.389 141.944 203.552 142.999 204.75C144.441 206.312 145.884 207.873 147.37 209.482C153.314 218.026 152.285 227.838 152.203 237.866C152.211 239.954 152.218 242.043 152.226 244.195C152.238 248.601 152.221 253.005 152.183 257.41C152.137 263.037 152.163 268.66 152.212 274.287C152.248 279.683 152.223 285.079 152.203 290.475C152.227 293.492 152.227 293.492 152.253 296.569C152.041 312.111 152.041 312.111 147.178 318.081C140.249 324.164 136.172 325.688 126.679 325.406C119.774 324.524 116.172 321.034 111.717 315.961C107.105 309.537 106.967 305.683 106.734 297.768C106.701 296.691 106.667 295.614 106.632 294.503C106.526 291.06 106.43 287.616 106.335 284.172C106.264 281.838 106.194 279.504 106.122 277.17C105.948 271.447 105.783 265.724 105.624 260C103.479 264.29 101.334 268.58 99.1236 273C91.5075 272.086 85.7378 268.719 79.319 264.773C78.242 264.117 77.1651 263.46 76.0555 262.783C50.0655 246.656 28.8627 226.398 19.4987 196.625C17.9171 188.864 17.6142 181.284 17.586 173.393C17.5754 172.075 17.5647 170.758 17.5537 169.401C17.5218 165.07 17.5027 160.738 17.4865 156.406C17.4798 154.921 17.4732 153.437 17.4664 151.907C17.4326 144.056 17.4093 136.206 17.394 128.356C17.376 120.258 17.32 112.161 17.2556 104.063C17.2131 97.8229 17.1995 91.5832 17.1937 85.3432C17.1858 82.3578 17.1669 79.3723 17.1367 76.387C17.0971 72.2099 17.0987 68.0346 17.11 63.8574C17.0891 62.6314 17.0683 61.4054 17.0469 60.1422C17.1494 49.7162 21.0547 44.1283 28.0299 36.7656C33.9131 33.2891 38.9102 33.0635 45.4987 34.1249Z" fill="#FF5C00"/>
<path d="M104 51.9999C111.016 54.7769 113.707 58.3169 117 64.9999C117.553 70.3974 117.553 70.3974 117.476 76.4574C117.469 77.528 117.462 78.5985 117.455 79.7015C117.428 83.0959 117.367 86.4888 117.305 89.8827C117.28 92.1943 117.258 94.5059 117.238 96.8175C117.184 102.462 117.1 108.106 117 113.75C118.014 114.217 119.028 114.684 120.072 115.165C124.933 117.767 126.214 120.046 128.375 125.125C129.618 131.682 129.848 137.228 126.414 143.108C120.428 150.366 115.461 153.874 106.031 155.289C96.9744 155.07 92.1308 149.155 86.125 143C85.1782 142.128 84.2314 141.257 83.2558 140.359C76.0718 133.663 73.4234 128.789 72.6271 119.013C72.573 116.654 72.5391 114.294 72.522 111.934C72.5073 110.674 72.4926 109.414 72.4775 108.116C72.454 105.459 72.4395 102.801 72.4335 100.143C72.4142 96.1012 72.3342 92.0636 72.2522 88.0228C72.2368 85.4309 72.225 82.8389 72.2173 80.247C72.1855 79.0515 72.1538 77.8561 72.1211 76.6245C72.1993 67.5608 74.9856 61.8111 81.25 55.2499C88.5061 50.4125 95.4919 51.2015 104 51.9999Z" fill="#FF5C00"/>
<path d="M159.171 0C159.171 24.1313 159.171 48.2625 159.171 73.125C145.751 73.125 140.472 72.8439 131.256 64.3078C121.617 53.846 120.983 43.8181 121.383 30.342C122.208 20.7903 124.581 14.9614 131.965 8.49388C141.554 1.27725 146.314 0 159.171 0Z" fill="#FF5C00"/>
<path d="M145.397 134.368C147.058 134.326 147.058 134.326 148.752 134.285C153.483 135.117 155.443 136.398 158.821 139.75C159.419 144.051 159.606 147.667 159.477 151.957C159.468 153.14 159.458 154.323 159.45 155.542C159.411 159.318 159.326 163.092 159.24 166.868C159.206 169.429 159.175 171.99 159.149 174.551C159.076 180.827 158.959 187.101 158.821 193.375C151.783 192.611 147.729 191.786 142.748 186.843C141.734 185.851 140.723 184.86 139.68 183.838C138.658 182.796 137.638 181.753 136.586 180.681C135.013 179.145 135.013 179.145 133.412 177.578C126.934 171.137 122.512 166.34 121.062 157.219C122.19 149.026 125.978 143.915 131.969 138.125C136.524 135.39 140.054 134.397 145.397 134.368Z" fill="#FF5C00"/>
<path d="M269.349 34.6828C260.789 37.847 255.813 42.6381 251.741 50.8773C251.587 55.1485 251.528 59.3782 251.54 63.6498C251.537 64.9695 251.534 66.2891 251.531 67.6488C251.524 70.5215 251.521 73.3942 251.52 76.267C251.515 82.3844 251.481 88.5016 251.448 94.6189C251.387 106.012 251.337 117.404 251.34 128.797C251.342 136.718 251.304 144.639 251.241 152.56C251.225 155.572 251.222 158.584 251.234 161.595C251.303 180.215 251.095 193.997 237.673 208.014C236.175 209.333 234.677 210.653 233.133 212.012C230.874 214.041 230.874 214.041 228.569 216.111C224.674 219.551 224.674 219.551 219.728 220.919C221.096 219.573 222.464 218.226 223.873 216.839C225.66 215.062 227.446 213.284 229.232 211.506C230.134 210.62 231.037 209.734 231.967 208.821C238.071 202.719 240.178 199.299 241.337 190.656C241.308 182.773 237.268 178.755 232.095 173.253C226.975 168.553 222.492 168.321 215.781 168.473C203.934 170.294 193.872 183.421 185.813 191.668C184.168 193.313 184.168 193.313 182.49 194.992C181.418 196.081 180.346 197.169 179.241 198.291C178.292 199.255 177.342 200.22 176.364 201.213C175.355 202.372 174.347 203.531 173.308 204.725C171.887 206.281 170.465 207.837 169.001 209.441C163.147 217.955 164.16 227.734 164.241 237.727C164.233 239.809 164.226 241.89 164.218 244.035C164.206 248.425 164.223 252.814 164.261 257.204C164.306 262.812 164.28 268.416 164.232 274.024C164.196 279.402 164.221 284.779 164.241 290.157C164.217 293.163 164.217 293.163 164.192 296.23C164.4 311.719 164.4 311.719 169.191 317.668C176.016 323.731 180.032 325.249 189.383 324.968C196.184 324.089 199.733 320.611 204.121 315.555C208.664 309.153 208.8 305.312 209.029 297.425C209.062 296.351 209.096 295.278 209.13 294.171C209.235 290.739 209.329 287.307 209.423 283.875C209.492 281.549 209.562 279.223 209.633 276.897C209.804 271.194 209.966 265.49 210.123 259.786C212.236 264.061 214.349 268.336 216.526 272.741C224.028 271.83 229.712 268.475 236.035 264.543C237.095 263.888 238.156 263.234 239.249 262.56C264.85 246.487 285.736 226.298 294.96 196.627C296.518 188.893 296.816 181.339 296.844 173.474C296.854 172.162 296.865 170.849 296.876 169.497C296.907 165.18 296.926 160.863 296.942 156.546C296.949 155.066 296.955 153.587 296.962 152.062C296.995 144.239 297.018 136.415 297.033 128.592C297.051 120.521 297.106 112.452 297.169 104.382C297.211 98.163 297.225 91.9446 297.23 85.726C297.238 82.7508 297.257 79.7755 297.286 76.8005C297.325 72.6376 297.324 68.4766 297.313 64.3136C297.333 63.0918 297.354 61.87 297.375 60.6112C297.274 50.2208 293.427 44.652 286.556 37.3144C280.761 33.8499 275.839 33.6251 269.349 34.6828Z" fill="#FF5C00"/>
<path d="M211.991 52.5987C205.001 55.3788 202.321 58.9225 199.04 65.6128C198.488 71.0162 198.488 71.0162 198.565 77.0828C198.572 78.1545 198.579 79.2262 198.586 80.3304C198.613 83.7285 198.674 87.125 198.736 90.5227C198.761 92.8368 198.783 95.1509 198.803 97.465C198.856 103.116 198.94 108.766 199.04 114.416C198.03 114.883 197.02 115.351 195.979 115.833C191.137 118.437 189.86 120.719 187.707 125.803C186.47 132.367 186.24 137.919 189.661 143.806C195.624 151.071 200.573 154.584 209.967 156C218.99 155.781 223.815 149.859 229.799 143.698C230.742 142.825 231.685 141.953 232.657 141.054C239.814 134.351 242.453 129.471 243.246 119.685C243.3 117.323 243.334 114.961 243.351 112.598C243.365 111.337 243.38 110.076 243.395 108.776C243.418 106.115 243.433 103.455 243.439 100.794C243.458 96.748 243.538 92.706 243.619 88.6608C243.635 86.066 243.646 83.4712 243.654 80.8765C243.686 79.6797 243.717 78.483 243.75 77.25C243.672 68.1765 240.896 62.4205 234.655 55.8522C227.427 51.0096 220.467 51.7994 211.991 52.5987Z" fill="#FF5C00"/>
<path d="M157.625 0C157.625 24.1313 157.625 48.2625 157.625 73.125C170.868 73.125 176.078 72.8439 185.172 64.3078C194.684 53.846 195.31 43.8181 194.915 30.342C194.101 20.7903 191.759 14.9614 184.472 8.49388C175.01 1.27725 170.313 0 157.625 0Z" fill="#FF5C00"/>
<path d="M171.348 134.957C169.734 134.915 169.734 134.915 168.087 134.875C163.489 135.699 161.584 136.966 158.3 140.285C157.719 144.544 157.538 148.123 157.662 152.37C157.672 153.542 157.681 154.713 157.689 155.919C157.727 159.658 157.809 163.394 157.893 167.133C157.926 169.668 157.956 172.203 157.981 174.739C158.052 180.952 158.166 187.164 158.3 193.375C165.141 192.619 169.082 191.802 173.923 186.908C174.908 185.926 175.891 184.945 176.905 183.933C177.898 182.902 178.89 181.869 179.912 180.807C181.441 179.287 181.441 179.287 182.996 177.736C189.294 171.359 193.591 166.61 195 157.58C193.904 149.468 190.222 144.409 184.399 138.677C179.972 135.969 176.541 134.986 171.348 134.957Z" fill="#FF5C00"/>
<path d="M161.362 192.525C162.749 192.415 162.749 192.415 164.165 192.301C168.02 191.088 169.521 189.699 171.992 186.221C172.05 182.095 171.836 178.656 171.29 174.606C171.16 173.487 171.031 172.368 170.9 171.215C170.481 167.643 170.024 164.079 169.566 160.512C169.276 158.09 168.988 155.669 168.704 153.246C168.001 147.312 167.261 141.383 166.504 135.456C160.72 136.813 157.428 137.959 153.785 143.087C153.042 144.117 152.302 145.146 151.537 146.208C150.793 147.286 150.049 148.365 149.284 149.475C148.13 151.071 148.13 151.071 146.958 152.698C142.22 159.379 139.029 164.319 138.755 173.084C140.532 180.739 144.21 185.236 149.793 190.177C153.867 192.356 156.908 192.978 161.362 192.525Z" fill="#FF5C00"/>
</g>
<path d="M1247 283.667H1302.71L1395.89 135.221V283.667H1451.6V43H1395.89L1302.71 192.131V43H1247V283.667Z" fill="black"/>
<path d="M566.004 46.3473L481.72 281.324H409.284L325 46.3473H386.605L445.502 223.751L504.738 46.3473H566.004ZM702.575 283.667C680.234 283.667 659.699 278.534 640.97 268.269C622.466 258.004 607.685 243.723 596.628 225.425C585.794 206.903 580.379 186.15 580.379 163.166C580.379 140.182 585.794 119.54 596.628 101.242C607.685 82.9438 622.466 68.6622 640.97 58.3973C659.699 48.1324 680.234 43 702.575 43C724.915 43 745.337 48.1324 763.841 58.3973C782.571 68.6622 797.239 82.9438 807.845 101.242C818.676 119.54 824.092 140.182 824.092 163.166C824.092 186.15 818.676 206.903 807.845 225.425C797.013 243.723 782.345 258.004 763.841 268.269C745.337 278.534 724.915 283.667 702.575 283.667ZM702.575 231.45C721.53 231.45 736.649 225.202 747.931 212.705C759.441 200.209 765.195 183.696 765.195 163.166C765.195 142.413 759.441 125.9 747.931 113.627C736.649 101.13 721.53 94.8822 702.575 94.8822C683.394 94.8822 668.049 101.019 656.54 113.292C645.257 125.565 639.616 142.19 639.616 163.166C639.616 183.919 645.257 200.544 656.54 213.04C668.049 225.313 683.394 231.45 702.575 231.45ZM914.174 237.14H989.995V281.324H856.292V46.3473H914.174V237.14ZM1074.47 46.3473V186.931C1074.47 200.99 1077.97 211.813 1084.96 219.4C1091.96 226.987 1102.23 230.78 1115.77 230.78C1129.3 230.78 1139.69 226.987 1146.91 219.4C1154.13 211.813 1157.74 200.99 1157.74 186.931V46.3473H1215.62V186.597C1215.62 207.573 1211.11 225.313 1202.08 239.818C1193.05 254.323 1180.87 265.257 1165.52 272.621C1150.4 279.985 1133.48 283.667 1114.75 283.667C1096.02 283.667 1079.21 280.096 1064.31 272.955C1049.65 265.592 1038.03 254.657 1029.45 240.153C1020.88 225.425 1016.59 207.573 1016.59 186.597V46.3473H1074.47Z" fill="black"/>
<defs>
<clipPath id="clip0_768_310">
<rect width="325" height="325" fill="white"/>
</clipPath>
</defs>
</svg>
