<svg width="700" height="150" viewBox="0 0 700 150" fill="none" xmlns="http://www.w3.org/2000/svg">
<g clip-path="url(#clip0_613_293)">
<path d="M20.9998 15.75C25.0103 17.2154 27.3419 19.4343 29.2498 23.25C29.3221 25.2282 29.3496 27.187 29.3442 29.1653C29.3456 29.7764 29.347 30.3876 29.3485 31.0173C29.3515 32.3477 29.353 33.6781 29.3533 35.0086C29.3559 37.8417 29.3719 40.6747 29.3873 43.5078C29.4158 48.784 29.4392 54.06 29.4376 59.3363C29.437 63.0049 29.4546 66.673 29.484 70.3414C29.4919 71.7363 29.493 73.1311 29.4873 74.526C29.4554 83.1489 29.5525 89.5317 35.8416 96.0235C36.5434 96.6345 37.2453 97.2455 37.9685 97.8751C39.0271 98.8148 39.0271 98.8148 40.1072 99.7735C41.9319 101.367 41.9319 101.367 44.2498 102C43.6088 101.376 42.9678 100.753 42.3074 100.11C41.4703 99.2874 40.6334 98.4641 39.7966 97.6407C39.3737 97.2303 38.9507 96.8199 38.5149 96.397C35.655 93.5714 34.6675 91.9875 34.1248 87.9844C34.1383 84.3337 36.0313 82.4731 38.4548 79.9249C40.8542 77.7481 42.9543 77.6408 46.0989 77.7113C51.6499 78.5546 56.3644 84.6339 60.1404 88.4532C60.9112 89.2153 60.9112 89.2153 61.6975 89.9927C62.1998 90.4969 62.702 91.0011 63.2195 91.5206C63.6644 91.9672 64.1093 92.4138 64.5677 92.8739C65.0403 93.4105 65.5129 93.9472 65.9998 94.5001C66.6656 95.2208 67.3314 95.9416 68.0174 96.6841C70.7606 100.628 70.2857 105.156 70.2478 109.784C70.2514 110.748 70.255 111.712 70.2587 112.706C70.2642 114.739 70.2562 116.771 70.2386 118.805C70.2173 121.402 70.2296 123.997 70.252 126.594C70.2689 129.085 70.2571 131.575 70.2478 134.065C70.2592 135.458 70.2592 135.458 70.2708 136.878C70.1732 144.051 70.1732 144.051 67.9286 146.807C64.7307 149.614 62.8489 150.318 58.4675 150.188C55.2808 149.78 53.6181 148.17 51.5623 145.828C49.4335 142.863 49.3699 141.084 49.2625 137.432C49.2469 136.934 49.2313 136.437 49.2152 135.925C49.1662 134.335 49.122 132.746 49.0779 131.156C49.0455 130.079 49.0128 129.002 48.9797 127.925C48.8994 125.283 48.8234 122.642 48.7498 120C47.7598 121.98 46.7698 123.96 45.7498 126C42.2346 125.578 39.5717 124.024 36.6091 122.203C36.1121 121.9 35.615 121.597 35.1029 121.285C23.1075 113.841 13.3216 104.491 8.99976 90.7501C8.26981 87.1682 8.12999 83.6696 8.117 80.0274C8.11208 79.4195 8.10715 78.8116 8.10207 78.1853C8.08736 76.186 8.07855 74.1868 8.07104 72.1876C8.06799 71.5022 8.06493 70.8169 8.06178 70.1109C8.04618 66.4877 8.03543 62.8645 8.02838 59.2413C8.02006 55.5037 7.99423 51.7665 7.9645 48.029C7.94489 45.1491 7.93861 42.2692 7.93592 39.3892C7.93227 38.0113 7.92356 36.6335 7.90964 35.2556C7.89137 33.3277 7.89207 31.4007 7.89728 29.4727C7.88767 28.9069 7.87806 28.341 7.86816 27.758C7.91547 22.946 9.71791 20.367 12.9373 16.9688C15.6526 15.3643 17.9589 15.2602 20.9998 15.75Z" fill="#FF5C00"/>
<path d="M48.0004 23.9999C51.2385 25.2816 52.4804 26.9154 54.0004 29.9999C54.2559 32.491 54.2559 32.491 54.2202 35.288C54.217 35.7821 54.2138 36.2762 54.2105 36.7853C54.198 38.3519 54.1698 39.9178 54.1411 41.4843C54.1298 42.5511 54.1195 43.618 54.1103 44.6849C54.0856 47.2902 54.0468 49.895 54.0004 52.4999C54.4684 52.7155 54.9363 52.9311 55.4184 53.1532C57.6618 54.3538 58.253 55.4059 59.2504 57.7499C59.8239 60.7762 59.9304 63.3358 58.3452 66.0497C55.5828 69.3995 53.2902 71.0189 48.9379 71.6718C44.7579 71.5708 42.5224 68.8405 39.7504 65.9999C39.3135 65.5977 38.8765 65.1955 38.4262 64.7811C35.1105 61.6907 33.8882 59.4408 33.5206 54.929C33.4957 53.8401 33.48 52.7511 33.4721 51.662C33.4654 51.0805 33.4586 50.4989 33.4516 49.8998C33.4408 48.6731 33.4341 47.4464 33.4313 46.2197C33.4224 44.3544 33.3855 42.4908 33.3476 40.6259C33.3405 39.4296 33.3351 38.2333 33.3315 37.037C33.3169 36.4853 33.3022 35.9335 33.2871 35.3651C33.3232 31.1818 34.6092 28.5281 37.5004 25.4999C40.8494 23.2673 44.0736 23.6314 48.0004 23.9999Z" fill="#FF5C00"/>
<path d="M73.4636 0C73.4636 11.1375 73.4636 22.275 73.4636 33.75C67.2701 33.75 64.8333 33.6203 60.5801 29.6805C56.1311 24.852 55.8386 20.2238 56.0231 14.004C56.4041 9.5955 57.4991 6.90525 60.9071 3.92025C65.3328 0.5895 67.5296 0 73.4636 0Z" fill="#FF5C00"/>
<path d="M67.1062 62.016C67.8727 61.9965 67.8728 61.9965 68.655 61.9778C70.8383 62.3618 71.7428 62.9528 73.302 64.5C73.578 66.4853 73.6642 68.154 73.605 70.134C73.6005 70.68 73.596 71.226 73.5923 71.7885C73.5743 73.5315 73.5353 75.273 73.4955 77.016C73.4798 78.198 73.4655 79.38 73.4535 80.562C73.4198 83.4585 73.3657 86.3543 73.302 89.25C70.0538 88.8975 68.1825 88.5165 65.8838 86.235C65.4158 85.7775 64.9493 85.32 64.4678 84.8483C63.996 84.3675 63.525 83.886 63.0398 83.391C62.3138 82.6823 62.3137 82.6823 61.575 81.9593C58.5847 78.9863 56.544 76.7723 55.875 72.5625C56.3955 68.781 58.1437 66.4223 60.909 63.75C63.0112 62.4878 64.6402 62.0295 67.1062 62.016Z" fill="#FF5C00"/>
<path d="M123.565 15.6183C119.614 17.0787 117.318 19.29 115.438 23.0927C115.367 25.064 115.34 27.0161 115.345 28.9877C115.344 29.5967 115.342 30.2058 115.341 30.8334C115.338 32.1592 115.337 33.4851 115.336 34.811C115.334 37.6344 115.318 40.4577 115.303 43.2811C115.275 48.5393 115.252 53.7973 115.253 59.0555C115.254 62.7116 115.236 66.3672 115.208 70.0231C115.2 71.4131 115.199 72.8032 115.204 74.1933C115.236 82.7868 115.14 89.1477 108.945 95.6173C108.254 96.2262 107.562 96.8352 106.85 97.4626C105.807 98.3991 105.807 98.3991 104.743 99.3545C102.946 100.942 102.946 100.942 100.663 101.573C101.294 100.952 101.925 100.331 102.576 99.6903C103.401 98.87 104.225 98.0496 105.049 97.229C105.466 96.82 105.882 96.411 106.312 95.9896C109.129 93.1736 110.102 91.5951 110.636 87.6057C110.623 83.9675 108.758 82.1133 106.371 79.5737C104.007 77.4044 101.939 77.2974 98.8412 77.3677C93.3732 78.2081 88.7292 84.2666 85.0098 88.0729C84.2506 88.8324 84.2506 88.8324 83.476 89.6072C82.9812 90.1096 82.4865 90.6121 81.9768 91.1298C81.5385 91.5749 81.1003 92.0199 80.6487 92.4785C80.1832 93.0133 79.7177 93.5481 79.2381 94.0991C78.5822 94.8174 77.9264 95.5357 77.2506 96.2757C74.5484 100.206 75.0163 104.719 75.0536 109.331C75.0501 110.292 75.0465 111.253 75.0429 112.242C75.0375 114.269 75.0453 116.294 75.0626 118.321C75.0837 120.909 75.0715 123.495 75.0494 126.083C75.0328 128.565 75.0445 131.047 75.0536 133.529C75.0424 134.917 75.0424 134.917 75.0309 136.332C75.1271 143.481 75.1271 143.481 77.3381 146.227C80.4882 149.025 82.3418 149.726 86.6576 149.596C89.7966 149.191 91.4345 147.585 93.4596 145.252C95.5565 142.297 95.6192 140.524 95.725 136.884C95.7403 136.388 95.7557 135.893 95.7715 135.382C95.8198 133.798 95.8634 132.214 95.9068 130.63C95.9387 129.557 95.9709 128.483 96.0035 127.41C96.0826 124.777 96.1574 122.145 96.23 119.512C97.2052 121.485 98.1804 123.458 99.1851 125.491C102.648 125.071 105.271 123.522 108.189 121.708C108.679 121.405 109.168 121.103 109.673 120.792C121.489 113.374 131.128 104.056 135.385 90.3619C136.104 86.7923 136.242 83.3057 136.255 79.6759C136.26 79.0701 136.265 78.4643 136.27 77.8401C136.284 75.8477 136.293 73.8553 136.3 71.8629C136.303 71.1799 136.306 70.4969 136.309 69.7933C136.325 66.1825 136.335 62.5717 136.342 58.9608C136.35 55.236 136.376 51.5116 136.405 47.7869C136.424 44.9168 136.431 42.0468 136.433 39.1767C136.437 37.8035 136.445 36.4303 136.459 35.0572C136.477 33.1359 136.476 31.2154 136.471 29.294C136.481 28.7301 136.49 28.1662 136.5 27.5852C136.453 22.7897 134.678 20.2195 131.507 16.8329C128.832 15.2339 126.56 15.1301 123.565 15.6183Z" fill="#FF5C00"/>
<path d="M97.8419 24.2763C94.6161 25.5594 93.3788 27.195 91.8645 30.2828C91.61 32.7767 91.61 32.7767 91.6456 35.5767C91.6487 36.0713 91.6519 36.566 91.6552 37.0756C91.6677 38.6439 91.6958 40.2116 91.7244 41.7797C91.7356 42.8477 91.7459 43.9158 91.755 44.9839C91.7796 47.5919 91.8183 50.1995 91.8645 52.8073C91.3983 53.0231 90.9321 53.239 90.4518 53.4613C88.2169 54.6633 87.6279 55.7164 86.6342 58.063C86.0629 61.0926 85.9568 63.655 87.5361 66.3718C90.2881 69.7253 92.572 71.3465 96.908 72C101.072 71.8989 103.299 69.1657 106.061 66.322C106.496 65.9193 106.932 65.5167 107.38 65.1019C110.683 62.0081 111.901 59.7558 112.267 55.239C112.292 54.149 112.308 53.0588 112.316 51.9685C112.322 51.3863 112.329 50.8042 112.336 50.2043C112.347 48.9764 112.354 47.7483 112.356 46.5203C112.365 44.6529 112.402 42.7874 112.44 40.9204C112.447 39.7228 112.452 38.5252 112.456 37.3276C112.47 36.7753 112.485 36.2229 112.5 35.6539C112.464 31.4661 111.183 28.8095 108.302 25.7779C104.966 23.5429 101.754 23.9074 97.8419 24.2763Z" fill="#FF5C00"/>
<path d="M72.75 0C72.75 11.1375 72.75 22.275 72.75 33.75C78.8619 33.75 81.2666 33.6203 85.4638 29.6805C89.8543 24.852 90.1429 20.2238 89.9608 14.004C89.5849 9.5955 88.5043 6.90525 85.1411 3.92025C80.7737 0.5895 78.6059 0 72.75 0Z" fill="#FF5C00"/>
<path d="M79.0837 62.2879C78.3387 62.2686 78.3387 62.2686 77.5784 62.25C75.4564 62.6302 74.5773 63.2153 73.0617 64.7471C72.7935 66.7125 72.7097 68.3646 72.7672 70.3248C72.7716 70.8654 72.776 71.4059 72.7796 71.9628C72.7971 73.6884 72.835 75.4125 72.8737 77.1381C72.889 78.3083 72.9028 79.4785 72.9145 80.6487C72.9473 83.5163 72.9998 86.3832 73.0617 89.25C76.2189 88.901 78.0377 88.5238 80.2719 86.2651C80.7268 85.8122 81.1802 85.3592 81.6482 84.8922C82.1068 84.4162 82.5645 83.9395 83.0362 83.4495C83.7418 82.7478 83.7418 82.7478 84.4599 82.032C87.3662 79.0887 89.3498 76.8968 90 72.7291C89.4941 68.9853 87.7949 66.6501 85.1072 64.0046C83.0639 62.7549 81.4806 62.3012 79.0837 62.2879Z" fill="#FF5C00"/>
</g>
<g clip-path="url(#clip1_613_293)">
<path d="M272.038 28.2019L232.717 129.902H198.922L159.601 28.2019H188.342L215.819 104.984L243.455 28.2019H272.038ZM335.753 130.916C325.331 130.916 315.75 128.695 307.012 124.252C298.379 119.809 291.484 113.628 286.325 105.709C281.271 97.6923 278.744 88.7102 278.744 78.7623C278.744 68.8144 281.271 59.8806 286.325 51.961C291.484 44.0413 298.379 37.8601 307.012 33.4173C315.75 28.9745 325.331 26.7532 335.753 26.7532C346.176 26.7532 355.704 28.9745 364.337 33.4173C373.075 37.8601 379.918 44.0413 384.866 51.961C389.919 59.8806 392.446 68.8144 392.446 78.7623C392.446 88.7102 389.919 97.6923 384.866 105.709C379.812 113.628 372.969 119.809 364.337 124.252C355.704 128.695 346.176 130.916 335.753 130.916ZM335.753 108.316C344.597 108.316 351.65 105.612 356.914 100.203C362.284 94.7949 364.968 87.6478 364.968 78.7623C364.968 69.7803 362.284 62.6332 356.914 57.3212C351.65 51.9127 344.597 49.2084 335.753 49.2084C326.805 49.2084 319.646 51.8644 314.277 57.1764C309.013 62.4883 306.381 69.6837 306.381 78.7623C306.381 87.7444 309.013 94.9397 314.277 100.348C319.646 105.66 326.805 108.316 335.753 108.316ZM434.472 110.779H469.846V129.902H407.468V28.2019H434.472V110.779ZM509.256 28.2019V89.0483C509.256 95.1329 510.888 99.8171 514.152 103.101C517.415 106.385 522.206 108.027 528.522 108.027C534.839 108.027 539.682 106.385 543.051 103.101C546.42 99.8171 548.104 95.1329 548.104 89.0483V28.2019H575.108V88.9034C575.108 97.9821 573.003 105.66 568.791 111.938C564.58 118.216 558.895 122.948 551.736 126.136C544.683 129.323 536.787 130.916 528.049 130.916C519.311 130.916 511.467 129.371 504.519 126.28C497.676 123.093 492.254 118.361 488.253 112.083C484.253 105.709 482.252 97.9821 482.252 88.9034V28.2019H509.256Z" fill="white"/>
<path d="M591.734 130.916H621.164L670.385 66.6676V130.916H699.814V26.7532H670.385L621.164 91.2987V26.7532H591.734V130.916Z" fill="white"/>
</g>
<defs>
<clipPath id="clip0_613_293">
<rect width="150" height="150" fill="white"/>
</clipPath>
<clipPath id="clip1_613_293">
<rect width="540.4" height="142.041" fill="white" transform="translate(159.601 7.64819)"/>
</clipPath>
</defs>
</svg>
